<svg width="1440" height="42" viewBox="0 0 1440 42" fill="none" xmlns="http://www.w3.org/2000/svg">
  <rect width="1440" height="42" fill="black" mask="url(#holes)"/>
  <defs>
    <mask id="holes">
      <rect width="1440" height="42" fill="white"/>
      <circle cx="20" cy="20" r="20" transform="matrix(-1 0 0 1 1268 1)" fill="black"/>
      <circle cx="20" cy="20" r="20" transform="matrix(-1 0 0 1 1188 1)" fill="black"/>
      <circle cx="20" cy="20" r="20" transform="matrix(-1 0 0 1 1108 1)" fill="black"/>
      <circle cx="20" cy="20" r="20" transform="matrix(-1 0 0 1 1028 1)" fill="black"/>
      <circle cx="20" cy="20" r="20" transform="matrix(-1 0 0 1 1228 1)" fill="black"/>
      <circle cx="20" cy="20" r="20" transform="matrix(-1 0 0 1 684 1)" fill="black"/>
      <circle cx="20" cy="20" r="20" transform="matrix(-1 0 0 1 1068 1)" fill="black"/>
      <circle cx="20" cy="20" r="20" transform="matrix(-1 0 0 1 524 1)" fill="black"/>
      <circle cx="20" cy="20" r="20" transform="matrix(-1 0 0 1 452 1)" fill="black"/>
      <circle cx="20" cy="20" r="20" transform="matrix(-1 0 0 1 564 1)" fill="black"/>
      <circle cx="20" cy="20" r="20" transform="matrix(-1 0 0 1 212 1)" fill="black"/>
    </mask>
  </defs>
</svg>


