<svg width="564" height="564" viewBox="0 0 564 564" fill="none" xmlns="http://www.w3.org/2000/svg">
<mask id="mask0_963_7007" style="mask-type:alpha" maskUnits="userSpaceOnUse" x="102" y="102" width="360" height="360">
<path d="M282 462C381.411 462 462 381.411 462 282C462 182.589 381.411 102 282 102C182.589 102 102 182.589 102 282C102 381.411 182.589 462 282 462Z" fill="#262626"/>
<path d="M282 461.75C381.273 461.75 461.75 381.273 461.75 282C461.75 182.727 381.273 102.25 282 102.25C182.727 102.25 102.25 182.727 102.25 282C102.25 381.273 182.727 461.75 282 461.75Z" stroke="white" stroke-opacity="0.3" stroke-width="0.5"/>
</mask>
<g mask="url(#mask0_963_7007)">
<path d="M564 282C564 437.744 437.744 564 282 564C126.256 564 0 437.744 0 282C0 126.256 126.256 0 282 0C437.744 0 564 126.256 564 282Z" fill="#262626"/>
<path fill-rule="evenodd" clip-rule="evenodd" d="M282 563.5C437.468 563.5 563.5 437.468 563.5 282C563.5 126.532 437.468 0.5 282 0.5C126.532 0.5 0.5 126.532 0.5 282C0.5 437.468 126.532 563.5 282 563.5ZM282 564C437.744 564 564 437.744 564 282C564 126.256 437.744 0 282 0C126.256 0 0 126.256 0 282C0 437.744 126.256 564 282 564Z" fill="white" fill-opacity="0.3"/>
<g style="mix-blend-mode:difference">
<path fill-rule="evenodd" clip-rule="evenodd" d="M30.25 280.635C30.25 313.826 36.7876 346.693 49.4894 377.358C62.1913 408.023 80.8087 435.886 104.279 459.356C127.749 482.826 155.612 501.443 186.277 514.145C216.942 526.847 249.808 533.385 283 533.385C316.192 533.385 349.058 526.847 379.723 514.145C410.388 501.443 438.251 482.826 461.721 459.356C485.191 435.886 503.809 408.023 516.511 377.358C529.212 346.693 535.75 313.826 535.75 280.635H536.25C536.25 313.892 529.7 346.824 516.973 377.549C504.246 408.275 485.591 436.193 462.075 459.71C438.558 483.226 410.64 501.88 379.915 514.607C349.189 527.334 316.257 533.885 283 533.885C249.743 533.885 216.811 527.334 186.085 514.607C155.36 501.88 127.442 483.226 103.925 459.71C80.4088 436.193 61.7545 408.275 49.0275 377.549C36.3005 346.824 29.75 313.892 29.75 280.635H30.25Z" fill="white"/>
<path fill-rule="evenodd" clip-rule="evenodd" d="M55.2491 280.636C55.2491 310.545 61.14 340.16 72.5855 367.792C84.031 395.424 100.807 420.531 121.955 441.68C143.104 462.828 168.211 479.604 195.843 491.05C223.475 502.495 253.091 508.386 282.999 508.386C312.908 508.386 342.523 502.495 370.155 491.05C397.787 479.604 422.894 462.828 444.043 441.68C465.191 420.531 481.967 395.424 493.413 367.792C504.858 340.16 510.749 310.545 510.749 280.636H511.249C511.249 310.61 505.345 340.291 493.875 367.984C482.404 395.676 465.591 420.838 444.396 442.033C423.201 463.228 398.039 480.041 370.347 491.512C342.654 502.982 312.973 508.886 282.999 508.886C253.025 508.886 223.344 502.982 195.652 491.512C167.959 480.041 142.797 463.228 121.602 442.033C100.407 420.838 83.5942 395.676 72.1236 367.984C60.6529 340.291 54.7491 310.61 54.7491 280.636H55.2491Z" fill="white"/>
<g style="mix-blend-mode:difference">
<path d="M399.961 459.358L401.792 458.096L410.897 464.063L409.145 465.271L406.899 463.787L403.368 466.22L403.98 468.829L402.32 469.973L399.961 459.358ZM402.08 460.657L402.997 464.61L405.527 462.867L402.133 460.62L402.08 460.657Z" fill="white"/>
</g>
<g style="mix-blend-mode:difference">
<path d="M410.183 460.225C408.832 458.438 409.174 456.315 410.91 455.003C412.582 453.739 414.33 454.142 415.481 455.399L414.259 456.463C413.507 455.707 412.64 455.541 411.797 456.177C410.955 456.814 410.84 457.883 411.728 459.058C412.605 460.219 413.665 460.401 414.508 459.764C415.35 459.128 415.417 458.234 414.886 457.292L416.262 456.433C417.157 457.883 417.067 459.675 415.395 460.939C413.659 462.25 411.533 462.012 410.183 460.225Z" fill="white"/>
</g>
<g style="mix-blend-mode:difference">
<path d="M417.836 454.032L420.22 456.96L418.732 458.173L412.365 450.358L413.854 449.145L416.492 452.383C416.259 451.54 416.61 450.552 417.429 449.885C418.893 448.693 420.235 449.251 421.225 450.467L424.004 453.878L422.515 455.091L419.979 451.977C419.292 451.133 418.563 450.922 417.831 451.519C417.074 452.135 417.088 453.115 417.836 454.032Z" fill="white"/>
</g>
<g style="mix-blend-mode:difference">
<path d="M421.245 446.957L422.697 445.702L427.311 451.04L425.858 452.296L421.245 446.957ZM420.467 446.106L419.243 444.69L420.732 443.403L421.956 444.82L420.467 446.106Z" fill="white"/>
</g>
<g style="mix-blend-mode:difference">
<path d="M430.8 444.617L432.055 443.691C432.838 445.099 432.563 446.603 431.226 447.82C429.616 449.284 427.52 449.31 426.023 447.665C424.526 446.02 424.621 443.77 426.184 442.349C427.888 440.798 429.84 441.185 431.133 442.606L431.595 443.114L427.678 446.678C428.425 447.404 429.524 447.4 430.293 446.7C430.992 446.065 431.137 445.392 430.8 444.617ZM426.894 445.769L429.403 443.487C428.807 442.926 427.912 442.68 427.119 443.401C426.338 444.112 426.432 445 426.894 445.769Z" fill="white"/>
</g>
<g style="mix-blend-mode:difference">
<path d="M437.847 441.291L436.338 442.768L429.413 439.672L430.854 438.262L435.639 440.475L435.684 440.43L433.564 435.61L434.903 434.301L437.847 441.291Z" fill="white"/>
</g>
<g style="mix-blend-mode:difference">
<path d="M441.747 433.791L442.935 432.78C443.814 434.13 443.643 435.65 442.393 436.956C440.888 438.528 438.798 438.698 437.192 437.16C435.585 435.622 435.525 433.372 436.985 431.846C438.579 430.182 440.553 430.433 441.94 431.761L442.437 432.236L438.775 436.062C439.57 436.735 440.666 436.654 441.385 435.903C442.038 435.221 442.136 434.54 441.747 433.791ZM437.93 435.209L440.276 432.759C439.642 432.241 438.733 432.057 437.991 432.831C437.261 433.594 437.416 434.473 437.93 435.209Z" fill="white"/>
</g>
<g style="mix-blend-mode:difference">
<path d="M442.429 421.688L443.871 419.995L454.211 423.4L452.832 425.02L450.278 424.169L447.498 427.433L448.765 429.795L447.458 431.33L442.429 421.688ZM444.812 422.394L446.722 425.975L448.714 423.636L444.854 422.345L444.812 422.394Z" fill="white"/>
</g>
<g style="mix-blend-mode:difference">
<path d="M453.414 412.951L457.935 414.786L457.974 414.735L455.129 410.717L456.19 409.333L460.425 415.405L459.295 416.878L454.822 415.059L454.783 415.11L457.698 418.96L456.558 420.445L449.597 417.927L450.756 416.417L455.384 418.112L455.423 418.061L452.47 414.182L453.414 412.951Z" fill="white"/>
</g>
<g style="mix-blend-mode:difference">
<path d="M462.199 407.683L462.055 407.582L461.53 408.835C461.197 409.618 460.975 410.185 461.552 410.589C461.945 410.864 462.392 410.728 462.741 410.23C463.319 409.404 463.13 408.334 462.199 407.683ZM462.067 405.305L464.374 406.92C464.675 407.131 464.93 407.074 465.104 406.825C465.214 406.668 465.285 406.483 465.325 406.258L466.164 406.845C466.187 407.231 466.137 407.665 465.77 408.19C465.311 408.845 464.637 408.999 463.907 408.702C464.347 409.498 464.15 410.532 463.554 411.384C462.71 412.59 461.593 412.902 460.597 412.205C459.496 411.435 459.661 410.222 460.316 408.728L461.111 406.921L460.98 406.83C460.338 406.38 459.706 406.446 459.238 407.114C458.78 407.77 458.925 408.399 459.397 408.924L458.266 410.262C457.224 409.239 457.031 407.757 458.104 406.223C459.15 404.729 460.546 404.241 462.067 405.305Z" fill="white"/>
</g>
<g style="mix-blend-mode:difference">
<path d="M464.202 397.651L465.625 398.75C465.25 398.945 464.995 399.16 464.741 399.549C464.2 400.38 464.422 401.327 465.495 402.026L468.417 403.931L467.368 405.539L461.457 401.686L462.506 400.078L463.632 400.812C463.101 400.161 462.886 399.142 463.419 398.324C463.655 397.963 463.941 397.729 464.202 397.651Z" fill="white"/>
</g>
<g style="mix-blend-mode:difference">
<path d="M469.784 395.389L469.552 395.247C468.46 394.58 467.368 394.832 466.801 395.76C466.176 396.785 466.601 397.776 467.748 398.476C468.882 399.169 469.958 399.095 470.583 398.071C471.151 397.142 470.89 396.064 469.784 395.389ZM472.671 397.17L471.524 396.47C472.08 397.185 472.217 398.281 471.567 399.346C470.474 401.135 468.514 401.213 466.739 400.129C464.964 399.044 464.125 397.257 465.217 395.468C465.868 394.403 466.905 394.024 467.809 394.202L464.068 391.916L465.069 390.278L473.671 395.532L472.671 397.17Z" fill="white"/>
</g>
<path fill-rule="evenodd" clip-rule="evenodd" d="M79.2491 280.636C79.2491 307.392 84.5192 333.887 94.7586 358.607C104.998 383.327 120.006 405.789 138.926 424.709C157.846 443.629 180.307 458.637 205.027 468.876C229.747 479.115 256.242 484.386 282.999 484.386C309.756 484.386 336.251 479.115 360.971 468.876C385.691 458.637 408.152 443.629 427.072 424.709C445.992 405.789 461 383.327 471.24 358.607C481.479 333.887 486.749 307.392 486.749 280.636H487.249C487.249 307.458 481.966 334.018 471.701 358.799C461.437 383.579 446.392 406.096 427.426 425.062C408.459 444.029 385.943 459.074 361.162 469.338C336.381 479.603 309.822 484.886 282.999 484.886C256.177 484.886 229.617 479.603 204.836 469.338C180.055 459.073 157.539 444.029 138.573 425.062C119.606 406.096 104.561 383.579 94.2967 358.799C84.0322 334.018 78.7491 307.458 78.7491 280.636H79.2491Z" fill="white"/>
<g style="mix-blend-mode:difference">
<path d="M377.481 445.474L379.198 444.449L384.366 453.103L382.649 454.128L377.481 445.474Z" fill="white"/>
</g>
<g style="mix-blend-mode:difference">
<path d="M388.905 443.394C388.768 442.487 389.133 441.5 390.095 440.866C391.685 439.819 392.914 440.58 393.759 441.863L396.179 445.538L394.576 446.594L392.367 443.24C391.768 442.331 391.145 441.995 390.356 442.514C389.581 443.025 389.536 443.974 390.187 444.963L392.264 448.116L390.661 449.172L388.452 445.818C387.853 444.91 387.216 444.582 386.441 445.093C385.666 445.603 385.621 446.553 386.272 447.541L388.349 450.695L386.746 451.751L382.864 445.858L384.468 444.802L385.102 445.764C384.955 444.902 385.324 444.008 386.22 443.418C387.262 442.732 388.175 442.839 388.905 443.394Z" fill="white"/>
</g>
<g style="mix-blend-mode:difference">
<path d="M396.038 441.076L396.199 441.295C396.966 442.34 398.049 442.517 398.926 441.873C399.906 441.153 399.888 440.074 399.101 439.004C398.306 437.921 397.282 437.581 396.302 438.301C395.425 438.945 395.28 440.044 396.038 441.076ZM397.424 442.936L399.773 446.134L398.226 447.271L392.495 439.47L394.042 438.333L394.847 439.429C394.594 438.543 394.87 437.487 395.889 436.738C397.565 435.507 399.43 436.181 400.662 437.858C401.893 439.534 401.97 441.503 400.293 442.734C399.275 443.483 398.184 443.43 397.424 442.936Z" fill="white"/>
</g>
<g style="mix-blend-mode:difference">
<path d="M403.299 431.393L404.299 432.887C403.882 432.953 403.571 433.076 403.208 433.365C402.43 433.981 402.341 434.95 403.136 435.953L405.302 438.687L403.797 439.879L399.415 434.349L400.92 433.156L401.754 434.21C401.458 433.424 401.578 432.39 402.343 431.784C402.682 431.515 403.027 431.385 403.299 431.393Z" fill="white"/>
</g>
<g style="mix-blend-mode:difference">
<path d="M408.256 431.761C409.121 432.768 410.187 433.076 411.073 432.314C411.971 431.542 411.827 430.442 410.961 429.435C410.085 428.416 409.019 428.109 408.121 428.881C407.236 429.642 407.38 430.742 408.256 431.761ZM412.43 428.173C413.858 429.835 413.685 431.989 412.022 433.418C410.372 434.837 408.217 434.686 406.788 433.023C405.359 431.361 405.522 429.195 407.172 427.776C408.835 426.348 411.001 426.511 412.43 428.173Z" fill="white"/>
</g>
<g style="mix-blend-mode:difference">
<path d="M418.763 427.119L417.218 428.559L410.371 425.294L411.846 423.92L416.575 426.249L416.622 426.206L414.62 421.335L415.99 420.059L418.763 427.119Z" fill="white"/>
</g>
<g style="mix-blend-mode:difference">
<path d="M423.645 418.879L424.851 417.889C425.706 419.254 425.509 420.771 424.236 422.056C422.705 423.601 420.612 423.735 419.033 422.17C417.453 420.605 417.431 418.353 418.918 416.853C420.539 415.216 422.509 415.502 423.873 416.853L424.362 417.337L420.634 421.099C421.418 421.786 422.515 421.724 423.247 420.985C423.912 420.315 424.022 419.635 423.645 418.879ZM419.804 420.232L422.192 417.822C421.567 417.293 420.661 417.094 419.906 417.856C419.163 418.606 419.303 419.488 419.804 420.232Z" fill="white"/>
</g>
<g style="mix-blend-mode:difference">
<path d="M435.599 409.363L434.018 411.169L428.366 410.921L428.488 412.41L431.004 414.612L429.687 416.117L422.102 409.478L423.419 407.973L426.851 410.977L426.254 404.735L427.793 402.977L428.361 408.96L435.599 409.363Z" fill="white"/>
</g>
<g style="mix-blend-mode:difference">
<path d="M437.397 403.165L438.492 402.053C439.486 403.321 439.45 404.85 438.32 406.261C436.96 407.96 434.893 408.313 433.157 406.923C431.421 405.533 431.162 403.296 432.483 401.648C433.923 399.849 435.912 399.925 437.411 401.126L437.948 401.556L434.637 405.689C435.489 406.29 436.573 406.113 437.223 405.301C437.814 404.564 437.851 403.877 437.397 403.165ZM433.72 404.914L435.841 402.267C435.164 401.807 434.242 401.704 433.572 402.54C432.912 403.365 433.144 404.227 433.72 404.914Z" fill="white"/>
</g>
<g style="mix-blend-mode:difference">
<path d="M445.097 401.448L443.977 402.968L442.536 400.554L435.093 398.706L436.289 397.083L441.305 398.395L441.343 398.344L438.596 393.953L439.707 392.447L445.097 401.448Z" fill="white"/>
</g>
<g style="mix-blend-mode:difference">
<path d="M450.188 384.382C451.653 385.327 451.794 386.998 450.519 388.975L447.952 392.955L439.481 387.491L441.91 383.726C443.289 381.588 444.793 381.264 446.178 382.157C447.132 382.773 447.388 383.852 446.946 384.862C447.794 383.961 448.978 383.601 450.188 384.382ZM446.727 386.795L445.339 388.947L447.652 390.438L449.04 388.287C449.716 387.238 449.602 386.441 448.903 385.99C448.19 385.531 447.404 385.747 446.727 386.795ZM441.897 386.726L444.062 388.123L445.363 386.106C446.014 385.098 445.847 384.381 445.215 383.973C444.584 383.566 443.849 383.701 443.198 384.71L441.897 386.726Z" fill="white"/>
</g>
<g style="mix-blend-mode:difference">
<path d="M452.966 378.634L449.699 376.741L450.661 375.08L456.767 378.617L455.804 380.278L454.807 379.7C455.329 380.428 455.369 381.413 454.831 382.34C453.893 383.96 452.478 383.88 451.122 383.094L447.301 380.88L448.263 379.219L451.752 381.24C452.679 381.778 453.434 381.752 453.907 380.936C454.38 380.119 454.004 379.235 452.966 378.634Z" fill="white"/>
</g>
<g style="mix-blend-mode:difference">
<path d="M455.414 376.282L456.132 374.78C456.935 375.076 457.615 374.711 458.07 373.847C458.397 373.224 458.453 372.602 458 372.364C457.575 372.14 457.242 372.327 456.815 372.898L456.124 373.799C455.211 375.018 454.328 375.494 453.167 374.883C451.978 374.257 451.685 372.82 452.52 371.234C453.429 369.506 454.752 368.883 456.199 369.499L455.518 370.931C454.75 370.672 454.143 370.967 453.674 371.859C453.353 372.468 453.414 373.006 453.838 373.229C454.178 373.408 454.496 373.286 454.805 372.87L455.629 371.785C456.534 370.58 457.496 370.092 458.672 370.71C459.946 371.381 460.073 372.858 459.223 374.472C458.366 376.1 457.003 376.974 455.414 376.282Z" fill="white"/>
</g>
<g style="mix-blend-mode:difference">
<path d="M455.054 366.736L455.897 365.011L462.236 368.11L461.393 369.835L455.054 366.736ZM454.005 366.258L452.323 365.436L453.188 363.668L454.869 364.49L454.005 366.258Z" fill="white"/>
</g>
<g style="mix-blend-mode:difference">
<path d="M460.653 362.64L464.098 364.184L463.313 365.936L456.874 363.051L457.659 361.299L458.711 361.77C458.124 361.122 457.994 360.081 458.426 359.118C459.198 357.395 460.648 357.29 462.079 357.932L466.094 359.731L465.309 361.483L461.644 359.841C460.651 359.396 459.905 359.535 459.519 360.396C459.12 361.287 459.572 362.156 460.653 362.64Z" fill="white"/>
</g>
<g style="mix-blend-mode:difference">
<path d="M466.459 352.293L467.184 350.911C468.503 351.834 468.914 353.308 468.243 354.987C467.436 357.008 465.561 357.947 463.496 357.122C461.431 356.297 460.533 354.232 461.316 352.271C462.171 350.131 464.096 349.626 465.879 350.338L466.518 350.593L464.553 355.511C465.543 355.838 466.529 355.353 466.915 354.387C467.265 353.511 467.101 352.842 466.459 352.293ZM463.451 355.036L464.709 351.886C463.928 351.643 463.016 351.813 462.618 352.808C462.226 353.789 462.699 354.546 463.451 355.036Z" fill="white"/>
</g>
<path fill-rule="evenodd" clip-rule="evenodd" d="M103.251 280.635C103.251 304.24 107.901 327.614 116.934 349.422C125.967 371.23 139.207 391.046 155.899 407.737C172.59 424.429 192.406 437.669 214.214 446.702C236.022 455.735 259.396 460.385 283.001 460.385C306.606 460.385 329.98 455.735 351.789 446.702C373.597 437.669 393.412 424.429 410.104 407.737C426.795 391.046 440.035 371.23 449.069 349.422C458.102 327.614 462.751 304.24 462.751 280.635H463.251C463.251 304.306 458.589 327.745 449.531 349.613C440.472 371.482 427.195 391.353 410.457 408.091C393.719 424.829 373.849 438.106 351.98 447.164C330.111 456.222 306.672 460.885 283.001 460.885C259.33 460.885 235.891 456.222 214.023 447.164C192.154 438.106 172.283 424.829 155.545 408.091C138.807 391.353 125.53 371.482 116.472 349.613C107.414 327.745 102.751 304.306 102.751 280.635H103.251Z" fill="white"/>
<g style="mix-blend-mode:difference">
<path d="M390.27 407.472L391.754 406.132L397.395 412.378L401.349 408.807L402.464 410.042L397.026 414.953L390.27 407.472Z" fill="white"/>
</g>
<g style="mix-blend-mode:difference">
<path d="M404.646 403.61L404.522 403.486L403.786 404.629C403.322 405.341 403.006 405.862 403.503 406.36C403.843 406.699 404.307 406.643 404.737 406.213C405.449 405.5 405.449 404.414 404.646 403.61ZM404.929 401.246L406.92 403.237C407.18 403.497 407.441 403.486 407.656 403.271C407.791 403.135 407.893 402.966 407.972 402.751L408.696 403.475C408.651 403.859 408.527 404.278 408.074 404.731C407.508 405.296 406.818 405.33 406.151 404.912C406.445 405.771 406.072 406.756 405.336 407.491C404.295 408.532 403.141 408.645 402.282 407.785C401.331 406.835 401.705 405.67 402.61 404.312L403.707 402.671L403.594 402.558C403.04 402.004 402.406 401.959 401.829 402.536C401.263 403.101 401.297 403.746 401.671 404.346L400.324 405.466C399.476 404.278 399.544 402.785 400.867 401.461C402.157 400.171 403.617 399.934 404.929 401.246Z" fill="white"/>
</g>
<g style="mix-blend-mode:difference">
<path d="M410.295 397.323L407.502 394.782L408.794 393.362L414.013 398.11L412.721 399.53L411.869 398.755C412.225 399.576 412.056 400.547 411.334 401.34C410.075 402.724 408.709 402.347 407.549 401.292L404.282 398.321L405.574 396.9L408.557 399.614C409.35 400.335 410.093 400.47 410.728 399.771C411.363 399.073 411.183 398.13 410.295 397.323Z" fill="white"/>
</g>
<g style="mix-blend-mode:difference">
<path d="M414.049 392.269L416.968 394.664L415.749 396.148L410.295 391.672L411.513 390.188L412.404 390.919C412.009 390.139 412.157 389.101 412.826 388.285C414.024 386.826 415.45 387.106 416.662 388.101L420.063 390.892L418.845 392.376L415.741 389.828C414.9 389.138 414.144 389.076 413.545 389.806C412.925 390.56 413.133 391.518 414.049 392.269Z" fill="white"/>
</g>
<g style="mix-blend-mode:difference">
<path d="M418.35 387.4C416.553 386.062 416.286 383.929 417.585 382.183C418.836 380.502 420.628 380.399 422.084 381.284L421.209 382.647C420.276 382.132 419.396 382.215 418.766 383.062C418.135 383.909 418.325 384.968 419.506 385.847C420.674 386.716 421.742 386.594 422.372 385.747C423.003 384.9 422.817 384.024 422.043 383.268L423.124 382.058C424.389 383.199 424.805 384.944 423.553 386.626C422.254 388.371 420.147 388.737 418.35 387.4Z" fill="white"/>
</g>
<g style="mix-blend-mode:difference">
<path d="M424.124 379.03L427.256 381.138L426.184 382.731L417.822 377.103L418.893 375.51L422.358 377.842C421.891 377.103 421.94 376.056 422.529 375.18C423.583 373.614 425.029 373.757 426.33 374.633L429.981 377.089L428.909 378.682L425.577 376.44C424.674 375.833 423.915 375.843 423.388 376.626C422.844 377.436 423.141 378.369 424.124 379.03Z" fill="white"/>
</g>
<g style="mix-blend-mode:difference">
<path d="M425.351 365.402L433.548 364.564L427.7 361.253L428.614 359.638L437.386 364.604L436.598 365.997L427.878 366.98L434.06 370.48L433.145 372.095L424.373 367.129L425.351 365.402Z" fill="white"/>
</g>
<g style="mix-blend-mode:difference">
<path d="M438.376 357.192L439.213 355.875C440.451 356.905 440.738 358.408 439.93 360.025C438.957 361.972 437.011 362.752 435.022 361.758C433.032 360.764 432.309 358.632 433.253 356.742C434.283 354.681 436.243 354.337 437.961 355.196L438.576 355.503L436.209 360.241C437.168 360.648 438.191 360.247 438.656 359.317C439.078 358.473 438.97 357.793 438.376 357.192ZM435.15 359.676L436.666 356.641C435.908 356.334 434.985 356.427 434.505 357.386C434.033 358.331 434.441 359.125 435.15 359.676Z" fill="white"/>
</g>
<g style="mix-blend-mode:difference">
<path d="M437.436 348.221L442.266 348.914L442.291 348.855L438.562 345.64L439.259 344.041L444.831 348.915L444.089 350.617L439.309 349.928L439.284 349.987L443.04 353.022L442.291 354.738L434.928 353.969L435.689 352.224L440.59 352.756L440.615 352.697L436.815 349.643L437.436 348.221Z" fill="white"/>
</g>
<g style="mix-blend-mode:difference">
<path d="M443.365 338.521L444.001 336.659C444.487 335.235 444.154 334.428 443.124 334.077C442.094 333.725 441.307 334.15 440.821 335.573L440.185 337.436L443.365 338.521ZM444.91 339.048L448.196 340.17L447.555 342.047L438.015 338.791L439.312 334.991C440.144 332.553 441.756 331.547 443.739 332.224C445.723 332.901 446.398 334.687 445.566 337.125L444.91 339.048Z" fill="white"/>
</g>
<g style="mix-blend-mode:difference">
<path d="M445.378 325.973L447.058 326.612C446.756 326.907 446.574 327.188 446.444 327.633C446.167 328.586 446.654 329.428 447.883 329.786L451.232 330.762L450.695 332.605L443.921 330.631L444.458 328.788L445.748 329.164C445.052 328.694 444.551 327.781 444.824 326.844C444.945 326.43 445.151 326.123 445.378 325.973Z" fill="white"/>
</g>
<g style="mix-blend-mode:difference">
<path d="M449.281 324.672C450.57 324.99 451.617 324.622 451.897 323.488C452.18 322.339 451.425 321.526 450.136 321.208C448.831 320.886 447.784 321.254 447.501 322.404C447.221 323.538 447.976 324.35 449.281 324.672ZM450.599 319.329C452.728 319.854 453.835 321.709 453.31 323.837C452.789 325.95 450.946 327.077 448.817 326.552C446.689 326.027 445.566 324.168 446.087 322.055C446.612 319.927 448.471 318.804 450.599 319.329Z" fill="white"/>
</g>
<g style="mix-blend-mode:difference">
<path d="M452.063 312.742L451.796 312.69C450.54 312.446 449.605 313.062 449.397 314.13C449.168 315.308 449.912 316.089 451.231 316.346C452.535 316.6 453.518 316.155 453.747 314.977C453.955 313.909 453.336 312.99 452.063 312.742ZM455.39 313.406L454.071 313.149C454.842 313.626 455.352 314.605 455.114 315.83C454.713 317.888 452.903 318.644 450.861 318.246C448.82 317.849 447.41 316.466 447.811 314.408C448.049 313.183 448.89 312.467 449.799 312.318L445.496 311.48L445.863 309.595L455.757 311.522L455.39 313.406Z" fill="white"/>
</g>
<g style="mix-blend-mode:difference">
<path d="M453.471 304.727L449.733 304.191L450.006 302.291L456.99 303.293L456.718 305.193L455.577 305.03C456.333 305.51 456.737 306.408 456.585 307.47C456.319 309.323 454.977 309.777 453.425 309.554L449.054 308.927L449.326 307.026L453.318 307.599C454.379 307.751 455.069 307.446 455.203 306.512C455.337 305.577 454.659 304.898 453.471 304.727Z" fill="white"/>
</g>
<g style="mix-blend-mode:difference">
<path d="M453.786 300.572C451.556 300.365 450.218 298.683 450.419 296.516C450.613 294.429 452.089 293.409 453.793 293.406L453.755 295.026C452.69 295.072 451.982 295.6 451.885 296.652C451.787 297.703 452.5 298.509 453.965 298.645C455.415 298.779 456.264 298.119 456.361 297.067C456.459 296.016 455.844 295.364 454.79 295.122L455.083 293.526C456.757 293.842 458.021 295.116 457.827 297.203C457.626 299.37 456.017 300.779 453.786 300.572Z" fill="white"/>
</g>
<g style="mix-blend-mode:difference">
<path d="M456.234 292.288L452.32 292.076L452.265 293.082L451.131 293.021L451.077 292.537C451.002 291.844 450.661 291.634 450.015 291.439L449.068 291.163L449.131 289.997L451.08 290.102L451.184 288.185L452.526 288.257L452.422 290.175L455.905 290.363C456.512 290.396 456.799 290.139 456.83 289.564C456.851 289.18 456.728 288.773 456.559 288.347L457.821 288.416C458.177 288.948 458.37 289.535 458.323 290.398C458.264 291.484 457.736 292.369 456.234 292.288Z" fill="white"/>
</g>
<g style="mix-blend-mode:difference">
<path d="M455.95 287.862L455.918 286.197C456.768 286.101 457.213 285.47 457.231 284.494C457.245 283.79 457.016 283.209 456.504 283.2C456.024 283.19 455.81 283.506 455.685 284.208L455.471 285.324C455.202 286.823 454.626 287.644 453.314 287.619C451.971 287.593 451.065 286.439 451.099 284.648C451.137 282.696 452.039 281.545 453.609 281.447L453.643 283.032C452.841 283.145 452.43 283.681 452.411 284.689C452.397 285.377 452.693 285.831 453.173 285.84C453.557 285.847 453.785 285.596 453.875 285.085L454.125 283.746C454.394 282.263 455.035 281.395 456.362 281.421C457.802 281.448 458.578 282.712 458.543 284.535C458.507 286.375 457.68 287.767 455.95 287.862Z" fill="white"/>
</g>
<path d="M110.237 282.412C109.997 282.416 109.705 282.429 109.362 282.45C109.026 282.472 108.699 282.526 108.38 282.611C108.07 282.704 107.804 282.845 107.583 283.033C107.362 283.22 107.255 283.486 107.26 283.83C107.266 284.182 107.383 284.448 107.61 284.628C107.837 284.816 108.107 284.948 108.421 285.023C108.742 285.105 109.071 285.152 109.407 285.162C109.752 285.172 110.044 285.175 110.284 285.171C110.428 285.169 110.599 285.162 110.799 285.151C111.007 285.147 111.219 285.127 111.434 285.092C111.65 285.064 111.861 285.021 112.068 284.961C112.283 284.909 112.474 284.83 112.64 284.723C112.807 284.617 112.94 284.482 113.042 284.321C113.143 284.159 113.192 283.962 113.188 283.73C113.184 283.498 113.128 283.303 113.022 283.145C112.915 282.995 112.777 282.869 112.607 282.768C112.438 282.675 112.244 282.602 112.028 282.549C111.819 282.497 111.606 282.461 111.39 282.44C111.173 282.42 110.961 282.407 110.753 282.403C110.553 282.406 110.381 282.409 110.237 282.412ZM110.208 280.708C111.024 280.694 111.709 280.763 112.264 280.913C112.827 281.072 113.278 281.288 113.619 281.562C113.96 281.837 114.205 282.157 114.355 282.522C114.506 282.896 114.584 283.29 114.591 283.706C114.599 284.13 114.533 284.527 114.396 284.898C114.258 285.276 114.023 285.608 113.692 285.894C113.361 286.187 112.917 286.419 112.36 286.588C111.811 286.766 111.128 286.861 110.312 286.875C109.472 286.889 108.767 286.817 108.196 286.659C107.634 286.508 107.182 286.292 106.841 286.009C106.501 285.735 106.255 285.411 106.105 285.038C105.955 284.672 105.876 284.277 105.869 283.854C105.862 283.438 105.927 283.04 106.065 282.662C106.202 282.292 106.437 281.964 106.768 281.678C107.099 281.392 107.543 281.161 108.101 280.983C108.666 280.814 109.368 280.722 110.208 280.708Z" fill="white" fill-opacity="0.3"/>
<path d="M110.408 289.036C110.169 289.048 109.877 289.071 109.535 289.104C109.2 289.137 108.875 289.201 108.559 289.297C108.252 289.401 107.991 289.551 107.777 289.746C107.562 289.941 107.464 290.21 107.481 290.554C107.499 290.905 107.624 291.167 107.857 291.34C108.091 291.52 108.365 291.642 108.681 291.706C109.005 291.778 109.335 291.813 109.672 291.812C110.016 291.811 110.308 291.804 110.548 291.792C110.692 291.785 110.863 291.772 111.063 291.754C111.27 291.744 111.481 291.717 111.695 291.674C111.91 291.639 112.12 291.588 112.324 291.522C112.538 291.463 112.726 291.377 112.888 291.265C113.051 291.153 113.18 291.014 113.276 290.849C113.371 290.684 113.413 290.486 113.402 290.254C113.39 290.022 113.328 289.829 113.216 289.674C113.105 289.528 112.962 289.407 112.789 289.312C112.617 289.224 112.421 289.158 112.202 289.113C111.992 289.068 111.778 289.038 111.561 289.025C111.344 289.012 111.132 289.007 110.924 289.01C110.724 289.02 110.552 289.028 110.408 289.036ZM110.322 287.334C111.137 287.293 111.824 287.338 112.384 287.47C112.951 287.609 113.41 287.81 113.76 288.073C114.11 288.336 114.366 288.647 114.528 289.007C114.691 289.375 114.783 289.767 114.804 290.183C114.825 290.606 114.773 291.005 114.648 291.38C114.523 291.763 114.3 292.103 113.979 292.399C113.658 292.704 113.222 292.95 112.671 293.138C112.128 293.334 111.449 293.453 110.634 293.494C109.795 293.536 109.088 293.488 108.512 293.349C107.945 293.218 107.486 293.017 107.136 292.746C106.786 292.483 106.53 292.168 106.367 291.8C106.204 291.439 106.112 291.047 106.091 290.624C106.07 290.209 106.122 289.809 106.247 289.427C106.372 289.052 106.595 288.716 106.917 288.419C107.238 288.123 107.674 287.876 108.225 287.68C108.784 287.492 109.483 287.376 110.322 287.334Z" fill="white" fill-opacity="0.3"/>
<path d="M111.648 296.544C111.648 296.729 111.665 296.924 111.698 297.13C111.732 297.336 111.792 297.523 111.879 297.693C111.974 297.869 112.098 298.007 112.251 298.106C112.405 298.214 112.601 298.257 112.84 298.237C113.199 298.206 113.464 298.063 113.635 297.808C113.806 297.552 113.878 297.269 113.851 296.958C113.815 296.528 113.643 296.213 113.337 296.014C113.04 295.823 112.676 295.75 112.246 295.794L112.109 294.18C112.54 294.159 112.937 294.202 113.3 294.307C113.671 294.42 113.994 294.589 114.27 294.815C114.547 295.048 114.768 295.334 114.934 295.673C115.107 296.012 115.212 296.396 115.249 296.827C115.278 297.161 115.255 297.501 115.18 297.844C115.113 298.187 114.991 298.499 114.814 298.779C114.638 299.067 114.413 299.307 114.141 299.499C113.868 299.691 113.544 299.802 113.17 299.834C112.763 299.869 112.396 299.8 112.068 299.627C111.741 299.463 111.505 299.19 111.36 298.809L111.336 298.811C111.272 299.282 111.08 299.664 110.759 299.956C110.439 300.248 110.04 300.415 109.561 300.456C109.123 300.493 108.725 300.439 108.367 300.293C108.01 300.155 107.704 299.952 107.448 299.685C107.193 299.418 106.989 299.102 106.837 298.737C106.686 298.373 106.593 297.988 106.558 297.581C106.518 297.111 106.549 296.674 106.651 296.272C106.754 295.878 106.921 295.535 107.153 295.242C107.393 294.948 107.694 294.71 108.055 294.526C108.418 294.351 108.842 294.246 109.329 294.213L109.467 295.827C109.245 295.854 109.033 295.908 108.831 295.99C108.637 296.071 108.469 296.177 108.328 296.31C108.195 296.442 108.092 296.599 108.019 296.782C107.947 296.973 107.922 297.192 107.943 297.439C107.975 297.821 108.119 298.134 108.372 298.377C108.634 298.62 108.968 298.724 109.374 298.689C109.693 298.662 109.931 298.578 110.087 298.436C110.245 298.302 110.351 298.136 110.406 297.939C110.47 297.741 110.495 297.526 110.484 297.294C110.481 297.069 110.47 296.853 110.452 296.646L111.648 296.544Z" fill="white" fill-opacity="0.3"/>
<path d="M108.957 301.673L109.168 303.546L107.332 303.753L107.121 301.881L108.957 301.673Z" fill="white" fill-opacity="0.3"/>
<path fill-rule="evenodd" clip-rule="evenodd" d="M127.251 280.634C127.251 301.087 131.279 321.34 139.107 340.237C146.934 359.133 158.406 376.303 172.869 390.766C187.332 405.228 204.501 416.701 223.398 424.528C242.294 432.355 262.547 436.384 283.001 436.384C303.454 436.384 323.707 432.355 342.604 424.528C361.5 416.701 378.67 405.228 393.133 390.766C407.595 376.303 419.068 359.133 426.895 340.237C434.722 321.34 438.751 301.087 438.751 280.634H439.251C439.251 301.153 435.209 321.471 427.357 340.428C419.505 359.385 407.995 376.61 393.486 391.119C378.977 405.628 361.752 417.138 342.795 424.99C323.838 432.842 303.52 436.884 283.001 436.884C262.482 436.884 242.164 432.842 223.206 424.99C204.249 417.138 187.025 405.628 172.515 391.119C158.006 376.61 146.497 359.385 138.645 340.428C130.792 321.471 126.751 301.153 126.751 280.634H127.251Z" fill="white"/>
<g style="mix-blend-mode:difference">
<path d="M166.844 360.081L167.982 361.725L159.693 367.461L158.555 365.816L166.844 360.081Z" fill="white"/>
</g>
<g style="mix-blend-mode:difference">
<path d="M169.153 370.51C170.045 370.303 171.058 370.59 171.765 371.5C172.932 373.004 172.269 374.289 171.056 375.231L167.58 377.929L166.403 376.413L169.575 373.95C170.434 373.283 170.721 372.635 170.142 371.889C169.573 371.156 168.623 371.184 167.688 371.911L164.705 374.226L163.528 372.71L166.7 370.247C167.559 369.58 167.836 368.919 167.267 368.186C166.698 367.453 165.748 367.481 164.813 368.208L161.83 370.523L160.653 369.006L166.226 364.679L167.404 366.196L166.494 366.903C167.342 366.69 168.262 366.988 168.919 367.835C169.685 368.821 169.649 369.74 169.153 370.51Z" fill="white"/>
</g>
<g style="mix-blend-mode:difference">
<path d="M172.357 377.755L172.154 377.936C171.188 378.799 171.115 379.895 171.84 380.706C172.65 381.612 173.722 381.491 174.712 380.606C175.715 379.711 175.955 378.659 175.144 377.752C174.419 376.941 173.311 376.902 172.357 377.755ZM170.638 379.313L167.679 381.957L166.4 380.525L173.617 374.075L174.897 375.506L173.883 376.412C174.74 376.075 175.818 376.249 176.66 377.191C178.046 378.742 177.553 380.664 176.003 382.05C174.452 383.436 172.499 383.7 171.113 382.149C170.271 381.207 170.219 380.116 170.638 379.313Z" fill="white"/>
</g>
<g style="mix-blend-mode:difference">
<path d="M181.894 378.671L183.234 380.046L176.019 387.084L174.678 385.71L181.894 378.671Z" fill="white"/>
</g>
<g style="mix-blend-mode:difference">
<path d="M182.432 389.897L183.445 391.084C182.097 391.965 180.576 391.798 179.268 390.55C177.693 389.049 177.518 386.959 179.053 385.349C180.587 383.74 182.838 383.675 184.366 385.132C186.034 386.722 185.787 388.697 184.462 390.086L183.988 390.584L180.154 386.93C179.483 387.727 179.566 388.823 180.319 389.54C181.002 390.192 181.683 390.289 182.432 389.897ZM181.005 386.084L183.461 388.424C183.977 387.789 184.159 386.88 183.383 386.14C182.619 385.411 181.74 385.568 181.005 386.084Z" fill="white"/>
</g>
<g style="mix-blend-mode:difference">
<path d="M190.852 392.865C191.68 392.473 192.731 392.538 193.615 393.277C195.076 394.498 194.701 395.894 193.717 397.073L190.895 400.449L189.422 399.218L191.997 396.136C192.695 395.302 192.837 394.607 192.113 394.002C191.4 393.407 190.478 393.637 189.719 394.546L187.298 397.443L185.825 396.212L188.4 393.131C189.097 392.296 189.227 391.591 188.515 390.996C187.803 390.401 186.881 390.631 186.122 391.54L183.7 394.438L182.227 393.206L186.751 387.792L188.225 389.023L187.486 389.907C188.269 389.519 189.232 389.614 190.054 390.302C191.012 391.102 191.173 392.007 190.852 392.865Z" fill="white"/>
</g>
<g style="mix-blend-mode:difference">
<path d="M198.154 402.671L199.317 403.711C198.099 404.765 196.57 404.803 195.106 403.743C193.344 402.466 192.89 400.419 194.195 398.618C195.499 396.817 197.721 396.45 199.431 397.689C201.297 399.041 201.318 401.031 200.191 402.586L199.788 403.143L195.499 400.037C194.94 400.916 195.17 401.991 196.012 402.601C196.776 403.155 197.465 403.159 198.154 402.671ZM196.228 399.084L198.976 401.073C199.402 400.375 199.461 399.449 198.592 398.82C197.737 398.201 196.887 398.474 196.228 399.084Z" fill="white"/>
</g>
<g style="mix-blend-mode:difference">
<path d="M202.595 404.118L200.551 407.293L198.936 406.254L202.756 400.321L204.37 401.36L203.747 402.329C204.476 401.847 205.523 401.875 206.411 402.446C207.999 403.468 207.884 404.917 207.036 406.235L204.654 409.935L203.039 408.896L205.213 405.519C205.802 404.604 205.777 403.846 204.983 403.335C204.163 402.806 203.236 403.123 202.595 404.118Z" fill="white"/>
</g>
<g style="mix-blend-mode:difference">
<path d="M207.387 409.479L209.349 406.086L208.477 405.581L209.045 404.598L209.501 404.769C210.153 405.016 210.495 404.808 210.962 404.32L211.637 403.601L212.648 404.186L211.67 405.876L213.333 406.837L212.66 408L210.998 407.039L209.252 410.058C208.947 410.585 209.047 410.956 209.545 411.245C209.878 411.437 210.296 411.513 210.752 411.555L210.119 412.649C209.484 412.725 208.873 412.631 208.125 412.198C207.183 411.653 206.634 410.781 207.387 409.479Z" fill="white"/>
</g>
<g style="mix-blend-mode:difference">
<path d="M215.941 412.268L217.635 412.991C217.03 414.44 217.75 415.566 219.02 416.174C220.145 416.713 221.081 416.611 221.447 415.847C221.779 415.154 221.355 414.632 220.493 413.988L218.913 412.841C217.624 411.904 217.016 410.654 217.735 409.154C218.55 407.451 220.418 406.997 222.539 408.013C224.92 409.154 225.674 411.023 224.735 413.057L223.048 412.32C223.585 411.051 223.088 410.015 221.847 409.42C220.779 408.909 219.945 409.095 219.572 409.874C219.254 410.538 219.619 410.997 220.366 411.55L221.894 412.654C223.525 413.843 223.954 415.096 223.249 416.568C222.392 418.357 220.385 418.584 218.335 417.602C215.998 416.483 214.89 414.462 215.941 412.268Z" fill="white"/>
</g>
<g style="mix-blend-mode:difference">
<path d="M224.011 416.199C224.865 414.128 226.867 413.344 228.878 414.173C230.816 414.972 231.357 416.683 230.859 418.312L229.322 417.8C229.591 416.769 229.294 415.937 228.317 415.534C227.341 415.132 226.362 415.576 225.801 416.937C225.246 418.283 225.628 419.289 226.604 419.691C227.58 420.093 228.384 419.698 228.926 418.761L230.365 419.51C229.57 421.017 227.981 421.851 226.043 421.052C224.031 420.223 223.157 418.27 224.011 416.199Z" fill="white"/>
</g>
<g style="mix-blend-mode:difference">
<path d="M235.596 421.205L235.654 421.038L234.305 420.874C233.461 420.767 232.855 420.708 232.623 421.373C232.466 421.827 232.719 422.219 233.293 422.419C234.245 422.75 235.223 422.277 235.596 421.205ZM237.848 420.429L236.922 423.089C236.801 423.437 236.925 423.666 237.212 423.766C237.393 423.829 237.59 423.847 237.818 423.824L237.482 424.791C237.116 424.918 236.685 424.988 236.081 424.778C235.325 424.515 234.994 423.909 235.08 423.126C234.434 423.765 233.385 423.857 232.403 423.516C231.013 423.032 230.408 422.043 230.808 420.894C231.25 419.625 232.461 419.453 234.078 419.677L236.032 419.95L236.085 419.799C236.342 419.059 236.107 418.469 235.337 418.2C234.581 417.938 234.015 418.249 233.638 418.846L232.043 418.122C232.743 416.841 234.117 416.252 235.885 416.867C237.608 417.466 238.457 418.676 237.848 420.429Z" fill="white"/>
</g>
<g style="mix-blend-mode:difference">
<path d="M241.688 415.826L243.526 416.381L240.611 426.03L238.773 425.475L241.688 415.826Z" fill="white"/>
</g>
<g style="mix-blend-mode:difference">
<path d="M247.173 424.679L247.217 424.509L245.859 424.457C245.01 424.42 244.4 424.412 244.225 425.094C244.105 425.559 244.39 425.929 244.979 426.081C245.955 426.332 246.89 425.779 247.173 424.679ZM249.353 423.72L248.651 426.447C248.56 426.804 248.702 427.022 248.996 427.098C249.182 427.145 249.38 427.147 249.605 427.106L249.35 428.097C248.996 428.254 248.572 428.36 247.953 428.2C247.178 428.001 246.798 427.424 246.818 426.637C246.228 427.327 245.19 427.506 244.183 427.247C242.758 426.881 242.073 425.945 242.376 424.767C242.711 423.465 243.904 423.194 245.533 423.283L247.504 423.393L247.544 423.238C247.739 422.479 247.456 421.91 246.666 421.707C245.891 421.508 245.353 421.865 245.027 422.491L243.377 421.902C243.969 420.567 245.289 419.866 247.102 420.332C248.868 420.787 249.815 421.922 249.353 423.72Z" fill="white"/>
</g>
<g style="mix-blend-mode:difference">
<path d="M253.048 425.453L252.995 425.72C252.745 426.991 253.346 427.909 254.414 428.119C255.607 428.355 256.389 427.612 256.646 426.309C256.906 424.991 256.464 424.006 255.271 423.771C254.204 423.561 253.296 424.197 253.048 425.453ZM252.524 427.698L251.915 428.964L250.471 428.679L252.421 418.79L254.305 419.161L253.457 423.462C253.938 422.676 254.903 422.166 256.143 422.41C258.184 422.813 258.948 424.643 258.546 426.684C258.143 428.724 256.744 430.112 254.672 429.703C253.463 429.465 252.714 428.632 252.524 427.698Z" fill="white"/>
</g>
<g style="mix-blend-mode:difference">
<path d="M260.717 420.372L262.614 420.664L261.081 430.626L259.183 430.334L260.717 420.372Z" fill="white"/>
</g>
<g style="mix-blend-mode:difference">
<path d="M268.328 429.082L269.851 429.418C269.307 430.934 267.993 431.717 266.197 431.511C264.035 431.262 262.636 429.701 262.89 427.491C263.144 425.282 264.9 423.873 266.998 424.114C269.287 424.377 270.281 426.101 270.062 428.009L269.983 428.692L264.722 428.088C264.667 429.129 265.393 429.953 266.427 430.071C267.364 430.179 267.966 429.846 268.328 429.082ZM264.89 426.899L268.26 427.287C268.29 426.469 267.886 425.633 266.821 425.511C265.772 425.39 265.166 426.045 264.89 426.899Z" fill="white"/>
</g>
<g style="mix-blend-mode:difference">
<path d="M279.198 429.227L279.204 429.051L277.867 429.295C277.03 429.443 276.433 429.567 276.409 430.271C276.393 430.75 276.752 431.05 277.359 431.071C278.367 431.105 279.16 430.363 279.198 429.227ZM281.118 427.819L281.024 430.633C281.012 431.001 281.198 431.183 281.501 431.194C281.693 431.2 281.887 431.159 282.098 431.07L282.064 432.093C281.752 432.323 281.361 432.518 280.721 432.496C279.922 432.469 279.426 431.989 279.275 431.215C278.848 432.017 277.874 432.417 276.835 432.382C275.364 432.333 274.493 431.567 274.534 430.352C274.579 429.008 275.685 428.485 277.295 428.219L279.242 427.9L279.248 427.74C279.274 426.957 278.874 426.463 278.059 426.436C277.259 426.409 276.811 426.874 276.629 427.556L274.891 427.338C275.179 425.907 276.316 424.936 278.187 424.999C280.01 425.06 281.18 425.964 281.118 427.819Z" fill="white"/>
</g>
<g style="mix-blend-mode:difference">
<path d="M286.385 428.581L286.492 432.355L284.572 432.409L284.373 425.356L286.292 425.302L286.325 426.453C286.654 425.644 287.534 425.075 288.59 425.045C290.477 424.992 291.201 426.252 291.245 427.819L291.37 432.217L289.45 432.272L289.337 428.257C289.306 427.17 288.857 426.558 287.913 426.585C286.938 426.612 286.351 427.397 286.385 428.581Z" fill="white"/>
</g>
<g style="mix-blend-mode:difference">
<path d="M298.522 428.284L298.498 428.013C298.388 426.738 297.538 426.008 296.454 426.102C295.259 426.205 294.713 427.136 294.828 428.475C294.942 429.798 295.64 430.621 296.835 430.518C297.919 430.424 298.633 429.575 298.522 428.284ZM298.797 431.665L298.682 430.326C298.436 431.198 297.634 431.958 296.391 432.066C294.303 432.246 293.078 430.713 292.899 428.641C292.721 426.569 293.663 424.833 295.751 424.653C296.994 424.546 297.914 425.157 298.307 425.99L297.93 421.622L299.843 421.457L300.71 431.5L298.797 431.665Z" fill="white"/>
</g>
<g style="mix-blend-mode:difference">
<path d="M304.575 427.459L306.375 427.068C306.72 428.6 307.959 429.101 309.346 428.861C310.576 428.649 311.28 428.025 311.136 427.189C311.006 426.432 310.358 426.252 309.282 426.226L307.33 426.205C305.736 426.188 304.517 425.521 304.234 423.881C303.914 422.021 305.173 420.57 307.491 420.17C310.093 419.722 311.79 420.809 312.202 423.011L310.4 423.387C310.103 422.042 309.098 421.484 307.742 421.718C306.575 421.919 306.002 422.554 306.149 423.405C306.274 424.13 306.838 424.293 307.767 424.312L309.653 424.327C311.67 424.353 312.745 425.126 313.023 426.734C313.359 428.689 311.854 430.036 309.615 430.422C307.061 430.863 304.988 429.856 304.575 427.459Z" fill="white"/>
</g>
<g style="mix-blend-mode:difference">
<path d="M319.08 424.943L318.213 421.268L320.081 420.827L321.703 427.694L319.834 428.136L319.569 427.014C319.399 427.893 318.71 428.598 317.667 428.844C315.845 429.275 314.932 428.191 314.571 426.665L313.557 422.368L315.425 421.926L316.352 425.851C316.598 426.894 317.134 427.425 318.053 427.208C318.972 426.991 319.356 426.111 319.08 424.943Z" fill="white"/>
</g>
<g style="mix-blend-mode:difference">
<path d="M322.161 425.203L323.74 424.673C324.086 425.456 324.821 425.69 325.758 425.416C326.433 425.218 326.919 424.825 326.775 424.334C326.64 423.873 326.274 423.764 325.567 423.854L324.438 423.985C322.928 424.178 321.972 423.874 321.603 422.615C321.225 421.325 322.054 420.115 323.773 419.611C325.647 419.062 327.015 419.578 327.579 421.047L326.077 421.554C325.729 420.822 325.094 420.592 324.127 420.875C323.467 421.069 323.122 421.486 323.257 421.947C323.365 422.315 323.674 422.458 324.188 422.391L325.541 422.228C327.036 422.04 328.056 422.391 328.43 423.666C328.835 425.047 327.862 426.166 326.112 426.679C324.346 427.197 322.77 426.825 322.161 425.203Z" fill="white"/>
</g>
<g style="mix-blend-mode:difference">
<path d="M330.489 423.286L329.217 419.578L328.263 419.905L327.895 418.83L328.323 418.599C328.937 418.27 329.004 417.874 328.943 417.202L328.843 416.221L329.948 415.842L330.581 417.689L332.398 417.066L332.834 418.337L331.018 418.96L332.149 422.259C332.347 422.834 332.692 423.003 333.237 422.816C333.6 422.692 333.932 422.426 334.263 422.109L334.673 423.305C334.314 423.834 333.841 424.233 333.024 424.513C331.995 424.866 330.977 424.708 330.489 423.286Z" fill="white"/>
</g>
<g style="mix-blend-mode:difference">
<path d="M339.273 418.744L339.207 418.58L338.08 419.339C337.373 419.811 336.876 420.164 337.137 420.818C337.315 421.264 337.763 421.395 338.328 421.17C339.264 420.797 339.693 419.799 339.273 418.744ZM340.466 416.683L341.509 419.299C341.645 419.641 341.889 419.733 342.171 419.62C342.35 419.549 342.51 419.434 342.668 419.267L343.047 420.219C342.854 420.554 342.574 420.889 341.98 421.126C341.236 421.423 340.589 421.181 340.141 420.533C340.072 421.439 339.34 422.196 338.374 422.581C337.007 423.126 335.902 422.775 335.451 421.645C334.954 420.397 335.757 419.473 337.125 418.584L338.781 417.51L338.722 417.361C338.431 416.633 337.867 416.341 337.109 416.643C336.366 416.94 336.142 417.546 336.249 418.244L334.569 418.741C334.259 417.315 334.911 415.97 336.65 415.276C338.344 414.601 339.779 414.959 340.466 416.683Z" fill="white"/>
</g>
<g style="mix-blend-mode:difference">
<path d="M342.526 413.041L344.276 412.251L347.18 418.681L345.43 419.472L342.526 413.041ZM342.022 412.005L341.252 410.299L343.045 409.489L343.816 411.195L342.022 412.005Z" fill="white"/>
</g>
<g style="mix-blend-mode:difference">
<path d="M348.7 413.802L350.394 417.177L348.678 418.038L345.512 411.732L347.228 410.871L347.745 411.901C347.701 411.028 348.257 410.139 349.201 409.666C350.889 408.819 352.078 409.654 352.781 411.055L354.755 414.988L353.039 415.849L351.237 412.26C350.749 411.288 350.083 410.924 349.24 411.347C348.367 411.785 348.168 412.744 348.7 413.802Z" fill="white"/>
</g>
<g style="mix-blend-mode:difference">
<path d="M358.06 409.649L357.972 409.496L356.963 410.407C356.329 410.973 355.887 411.393 356.238 412.003C356.476 412.42 356.939 412.486 357.466 412.184C358.341 411.682 358.625 410.634 358.06 409.649ZM358.951 407.44L360.352 409.883C360.535 410.202 360.789 410.259 361.053 410.108C361.22 410.013 361.362 409.876 361.495 409.689L362.005 410.577C361.86 410.936 361.631 411.308 361.075 411.626C360.381 412.024 359.706 411.877 359.172 411.298C359.231 412.205 358.613 413.057 357.711 413.575C356.434 414.307 355.29 414.114 354.685 413.06C354.017 411.894 354.682 410.867 355.911 409.793L357.399 408.497L357.319 408.358C356.929 407.678 356.33 407.468 355.622 407.874C354.928 408.272 354.792 408.904 354.995 409.58L353.403 410.309C352.895 408.941 353.351 407.517 354.975 406.585C356.557 405.678 358.028 405.83 358.951 407.44Z" fill="white"/>
</g>
<g style="mix-blend-mode:difference">
<path d="M363.367 405.748L363.516 405.975C364.226 407.06 365.298 407.295 366.208 406.699C367.226 406.033 367.266 404.955 366.538 403.844C365.802 402.719 364.798 402.325 363.781 402.991C362.871 403.587 362.666 404.677 363.367 405.748ZM364.562 407.719L365.013 409.05L363.781 409.856L358.26 401.423L359.866 400.371L362.268 404.039C362.062 403.141 362.395 402.101 363.452 401.408C365.193 400.269 367.019 401.043 368.158 402.783C369.297 404.524 369.268 406.494 367.501 407.651C366.47 408.325 365.352 408.254 364.562 407.719Z" fill="white"/>
</g>
<g style="mix-blend-mode:difference">
<path d="M364.976 396.967L366.539 395.851L372.396 404.055L370.833 405.171L364.976 396.967Z" fill="white"/>
</g>
<g style="mix-blend-mode:difference">
<path d="M376.962 397.531L378.286 396.706C378.957 398.17 378.565 399.649 377.137 400.758C375.418 402.092 373.326 401.954 371.962 400.197C370.598 398.441 370.869 396.206 372.537 394.91C374.357 393.497 376.273 394.035 377.451 395.552L377.872 396.095L373.689 399.343C374.377 400.125 375.473 400.206 376.295 399.568C377.041 398.99 377.238 398.33 376.962 397.531ZM372.979 398.376L375.658 396.295C375.107 395.69 374.234 395.375 373.388 396.032C372.553 396.68 372.578 397.572 372.979 398.376Z" fill="white"/>
</g>
<g style="mix-blend-mode:difference">
<path d="M388.033 387.441C389.214 388.725 388.93 390.377 387.2 391.97L383.715 395.177L376.889 387.76L380.185 384.726C382.057 383.004 383.595 383.068 384.711 384.28C385.48 385.116 385.456 386.225 384.775 387.091C385.822 386.432 387.058 386.382 388.033 387.441ZM384.077 388.908L382.193 390.641L384.057 392.666L385.94 390.933C386.859 390.088 386.949 389.287 386.385 388.675C385.811 388.051 384.995 388.063 384.077 388.908ZM379.419 387.627L381.164 389.523L382.93 387.898C383.813 387.085 383.832 386.35 383.323 385.797C382.814 385.243 382.068 385.19 381.185 386.002L379.419 387.627Z" fill="white"/>
</g>
<g style="mix-blend-mode:difference">
<path d="M391.275 383.367L388.561 380.742L389.895 379.362L394.967 384.267L393.632 385.647L392.804 384.846C393.135 385.678 392.936 386.643 392.191 387.414C390.889 388.76 389.536 388.341 388.409 387.251L385.235 384.18L386.569 382.8L389.468 385.604C390.238 386.349 390.976 386.506 391.633 385.828C392.289 385.149 392.137 384.201 391.275 383.367Z" fill="white"/>
</g>
<g style="mix-blend-mode:difference">
<path d="M394.408 381.477L395.45 380.178C396.164 380.648 396.91 380.448 397.549 379.71C398.01 379.178 398.206 378.586 397.819 378.251C397.456 377.936 397.09 378.042 396.544 378.5L395.665 379.221C394.499 380.2 393.53 380.462 392.539 379.602C391.524 378.722 391.567 377.256 392.74 375.902C394.019 374.427 395.449 374.121 396.718 375.051L395.728 376.29C395.04 375.863 394.382 376.012 393.721 376.773C393.271 377.293 393.207 377.831 393.57 378.145C393.86 378.397 394.197 378.35 394.592 378.016L395.642 377.147C396.798 376.18 397.846 375.923 398.849 376.793C399.938 377.737 399.724 379.204 398.53 380.582C397.324 381.972 395.798 382.512 394.408 381.477Z" fill="white"/>
</g>
<g style="mix-blend-mode:difference">
<path d="M396.376 371.902L397.575 370.402L403.087 374.807L401.888 376.306L396.376 371.902ZM395.456 371.207L393.994 370.039L395.222 368.501L396.685 369.67L395.456 371.207Z" fill="white"/>
</g>
<g style="mix-blend-mode:difference">
<path d="M402.186 369.823L405.228 372.06L404.09 373.607L398.406 369.426L399.543 367.879L400.471 368.562C400.035 367.804 400.128 366.76 400.754 365.91C401.872 364.389 403.311 364.593 404.574 365.522L408.119 368.129L406.981 369.676L403.746 367.296C402.87 366.651 402.111 366.63 401.552 367.39C400.973 368.177 401.232 369.121 402.186 369.823Z" fill="white"/>
</g>
<g style="mix-blend-mode:difference">
<path d="M410.095 360.736L411.079 359.524C412.19 360.691 412.301 362.216 411.311 363.729C410.119 365.55 408.096 366.1 406.235 364.883C404.374 363.665 403.902 361.464 405.058 359.696C406.32 357.768 408.307 357.654 409.914 358.705L410.489 359.081L407.59 363.513C408.495 364.029 409.558 363.749 410.127 362.879C410.644 362.089 410.616 361.401 410.095 360.736ZM406.603 362.829L408.46 359.991C407.742 359.598 406.815 359.584 406.228 360.481C405.65 361.364 405.963 362.2 406.603 362.829Z" fill="white"/>
</g>
<g style="mix-blend-mode:difference">
<path d="M411.311 359.111L412.094 357.641C412.883 357.972 413.579 357.637 414.071 356.794C414.425 356.185 414.508 355.567 414.066 355.309C413.651 355.067 413.31 355.239 412.859 355.791L412.129 356.661C411.164 357.84 410.261 358.276 409.128 357.615C407.967 356.938 407.737 355.489 408.64 353.941C409.623 352.255 410.972 351.69 412.391 352.369L411.648 353.77C410.893 353.477 410.273 353.745 409.765 354.616C409.419 355.211 409.456 355.751 409.87 355.992C410.202 356.186 410.524 356.078 410.851 355.676L411.722 354.628C412.679 353.463 413.661 353.017 414.808 353.686C416.052 354.412 416.115 355.893 415.196 357.468C414.269 359.058 412.869 359.871 411.311 359.111Z" fill="white"/>
</g>
<g style="mix-blend-mode:difference">
<path d="M415.205 352.432L415.911 350.924C416.716 351.213 417.393 350.842 417.841 349.975C418.163 349.349 418.214 348.727 417.759 348.493C417.333 348.272 417.001 348.461 416.579 349.036L415.895 349.943C414.992 351.17 414.112 351.652 412.947 351.051C411.752 350.434 411.448 348.999 412.27 347.407C413.165 345.672 414.483 345.038 415.935 345.643L415.265 347.08C414.496 346.827 413.891 347.127 413.429 348.022C413.113 348.634 413.178 349.171 413.604 349.392C413.946 349.568 414.262 349.443 414.568 349.024L415.383 347.933C416.279 346.721 417.237 346.225 418.417 346.834C419.697 347.494 419.836 348.97 418.999 350.591C418.155 352.226 416.799 353.11 415.205 352.432Z" fill="white"/>
</g>
<g style="mix-blend-mode:difference">
<path d="M418.613 339.149L419.37 337.332C419.948 335.944 419.669 335.117 418.665 334.698C417.66 334.28 416.847 334.652 416.268 336.04L415.512 337.857L418.613 339.149ZM420.12 339.776L423.325 341.111L422.562 342.943L413.257 339.067L414.801 335.36C415.792 332.982 417.465 332.084 419.4 332.89C421.335 333.696 421.892 335.523 420.901 337.901L420.12 339.776Z" fill="white"/>
</g>
<g style="mix-blend-mode:difference">
<path d="M421.371 326.843L423.011 327.58C422.691 327.857 422.493 328.126 422.338 328.563C422.005 329.498 422.442 330.367 423.648 330.797L426.934 331.968L426.289 333.776L419.642 331.408L420.287 329.599L421.553 330.05C420.885 329.541 420.439 328.6 420.767 327.681C420.912 327.274 421.135 326.98 421.371 326.843Z" fill="white"/>
</g>
<g style="mix-blend-mode:difference">
<path d="M426.578 323.271L426.409 323.22L426.301 324.574C426.229 325.422 426.196 326.03 426.87 326.234C427.329 326.373 427.711 326.104 427.887 325.522C428.178 324.557 427.665 323.599 426.578 323.271ZM425.71 321.053L428.406 321.867C428.758 321.974 428.982 321.841 429.07 321.55C429.126 321.366 429.135 321.168 429.103 320.942L430.084 321.238C430.226 321.598 430.314 322.026 430.129 322.639C429.897 323.404 429.305 323.76 428.519 323.707C429.184 324.326 429.32 325.369 429.019 326.365C428.594 327.774 427.63 328.419 426.466 328.067C425.179 327.679 424.958 326.475 425.114 324.851L425.307 322.887L425.154 322.84C424.403 322.614 423.823 322.873 423.587 323.654C423.356 324.42 423.69 324.972 424.303 325.325L423.645 326.948C422.336 326.302 421.691 324.953 422.232 323.161C422.759 321.415 423.934 320.516 425.71 321.053Z" fill="white"/>
</g>
<g style="mix-blend-mode:difference">
<path d="M427.343 319.026C425.165 318.501 424.082 316.643 424.592 314.528C425.084 312.49 426.691 311.693 428.377 311.935L428.108 313.532C427.047 313.425 426.271 313.846 426.023 314.873C425.776 315.899 426.365 316.799 427.796 317.144C429.212 317.485 430.146 316.953 430.394 315.927C430.641 314.9 430.127 314.167 429.119 313.776L429.637 312.239C431.249 312.792 432.316 314.234 431.825 316.272C431.315 318.387 429.52 319.551 427.343 319.026Z" fill="white"/>
</g>
<g style="mix-blend-mode:difference">
<path d="M430.804 311.853L426.958 311.095L426.763 312.084L425.649 311.864L425.663 311.378C425.687 310.681 425.378 310.425 424.766 310.141L423.867 309.735L424.093 308.589L426.008 308.967L426.38 307.083L427.698 307.343L427.327 309.227L430.749 309.902C431.346 310.02 431.665 309.805 431.776 309.24C431.851 308.863 431.787 308.443 431.679 307.998L432.919 308.242C433.197 308.819 433.305 309.428 433.138 310.275C432.927 311.343 432.28 312.145 430.804 311.853Z" fill="white"/>
</g>
<g style="mix-blend-mode:difference">
<path d="M426.717 305.15L427.024 303.255L433.989 304.381L433.683 306.277L426.717 305.15ZM425.575 304.998L423.727 304.699L424.041 302.756L425.889 303.055L425.575 304.998Z" fill="white"/>
</g>
<g style="mix-blend-mode:difference">
<path d="M430.758 302.507C428.535 302.234 427.247 300.513 427.511 298.353C427.767 296.272 429.273 295.296 430.975 295.344L430.89 296.962C429.824 296.976 429.101 297.484 428.973 298.532C428.844 299.58 429.533 300.406 430.994 300.585C432.439 300.762 433.307 300.127 433.435 299.079C433.564 298.031 432.969 297.362 431.922 297.088L432.262 295.502C433.926 295.867 435.151 297.178 434.896 299.258C434.631 301.418 432.981 302.779 430.758 302.507Z" fill="white"/>
</g>
<g style="mix-blend-mode:difference">
<path d="M433.113 289.646L433.384 288.109C434.922 288.589 435.76 289.869 435.63 291.672C435.473 293.843 433.972 295.306 431.754 295.146C429.535 294.986 428.053 293.291 428.205 291.185C428.371 288.887 430.052 287.821 431.967 287.959L432.654 288.009L432.272 293.291C433.314 293.302 434.107 292.541 434.182 291.504C434.25 290.562 433.891 289.975 433.113 289.646ZM431.078 293.172L431.322 289.789C430.504 289.794 429.686 290.233 429.609 291.302C429.533 292.355 430.213 292.934 431.078 293.172Z" fill="white"/>
</g>
<g style="mix-blend-mode:difference">
<path d="M433.374 287.761L433.346 286.096C434.197 286.003 434.643 285.372 434.664 284.397C434.68 283.693 434.452 283.112 433.94 283.101C433.46 283.09 433.245 283.405 433.118 284.107L432.902 285.222C432.629 286.721 432.05 287.54 430.739 287.511C429.395 287.482 428.492 286.326 428.532 284.534C428.574 282.583 429.48 281.434 431.05 281.341L431.079 282.926C430.277 283.036 429.865 283.571 429.843 284.579C429.828 285.267 430.122 285.721 430.602 285.732C430.986 285.74 431.215 285.489 431.306 284.979L431.56 283.64C431.833 282.158 432.476 281.292 433.803 281.321C435.243 281.353 436.015 282.618 435.975 284.442C435.935 286.281 435.104 287.671 433.374 287.761Z" fill="white"/>
</g>
<path d="M134.354 283.178C134.115 283.194 133.824 283.222 133.482 283.261C133.148 283.299 132.824 283.369 132.51 283.471C132.205 283.579 131.946 283.733 131.735 283.932C131.524 284.131 131.43 284.402 131.453 284.745C131.477 285.096 131.607 285.356 131.843 285.524C132.079 285.701 132.356 285.818 132.672 285.877C132.998 285.943 133.328 285.973 133.665 285.967C134.009 285.959 134.301 285.948 134.54 285.931C134.684 285.922 134.855 285.906 135.054 285.885C135.262 285.871 135.472 285.84 135.686 285.794C135.9 285.755 136.108 285.701 136.312 285.631C136.524 285.569 136.711 285.48 136.871 285.365C137.032 285.25 137.159 285.109 137.252 284.942C137.345 284.776 137.384 284.577 137.368 284.345C137.352 284.114 137.287 283.922 137.173 283.769C137.059 283.624 136.914 283.506 136.74 283.414C136.566 283.329 136.369 283.266 136.15 283.225C135.938 283.183 135.724 283.157 135.507 283.148C135.29 283.139 135.077 283.137 134.869 283.143C134.67 283.156 134.498 283.168 134.354 283.178ZM134.24 281.478C135.054 281.423 135.742 281.456 136.303 281.579C136.873 281.709 137.335 281.902 137.689 282.159C138.043 282.415 138.305 282.722 138.473 283.08C138.642 283.445 138.741 283.836 138.769 284.251C138.797 284.674 138.752 285.074 138.633 285.451C138.515 285.835 138.298 286.179 137.981 286.481C137.665 286.791 137.233 287.044 136.686 287.242C136.146 287.447 135.469 287.577 134.655 287.632C133.817 287.688 133.109 287.652 132.531 287.522C131.961 287.401 131.499 287.207 131.145 286.943C130.791 286.686 130.529 286.375 130.36 286.009C130.192 285.652 130.093 285.262 130.065 284.839C130.037 284.424 130.082 284.024 130.2 283.639C130.319 283.262 130.536 282.922 130.853 282.62C131.169 282.318 131.601 282.065 132.149 281.859C132.704 281.661 133.401 281.534 134.24 281.478Z" fill="white" fill-opacity="0.3"/>
<path d="M134.87 289.97C134.632 289.993 134.342 290.03 134.001 290.079C133.668 290.128 133.347 290.208 133.036 290.319C132.734 290.437 132.481 290.599 132.276 290.804C132.071 291.009 131.985 291.283 132.019 291.625C132.054 291.976 132.192 292.231 132.432 292.392C132.674 292.562 132.954 292.671 133.273 292.72C133.6 292.776 133.931 292.795 134.267 292.778C134.611 292.76 134.902 292.74 135.141 292.716C135.285 292.702 135.455 292.681 135.654 292.654C135.861 292.633 136.07 292.596 136.282 292.543C136.494 292.498 136.702 292.438 136.903 292.362C137.113 292.293 137.297 292.198 137.454 292.078C137.611 291.958 137.733 291.813 137.821 291.644C137.909 291.475 137.941 291.274 137.919 291.044C137.896 290.813 137.825 290.623 137.706 290.474C137.587 290.333 137.439 290.219 137.262 290.132C137.085 290.053 136.887 289.996 136.666 289.961C136.454 289.926 136.239 289.907 136.022 289.904C135.804 289.902 135.592 289.906 135.384 289.919C135.185 289.939 135.014 289.955 134.87 289.97ZM134.703 288.274C135.515 288.194 136.204 288.206 136.769 288.311C137.343 288.423 137.811 288.602 138.172 288.848C138.534 289.094 138.805 289.393 138.984 289.745C139.164 290.105 139.275 290.492 139.316 290.906C139.357 291.328 139.325 291.729 139.217 292.109C139.111 292.498 138.904 292.848 138.597 293.159C138.291 293.479 137.868 293.746 137.326 293.96C136.793 294.181 136.121 294.332 135.309 294.412C134.473 294.494 133.764 294.48 133.182 294.368C132.609 294.264 132.141 294.085 131.779 293.832C131.417 293.586 131.146 293.283 130.965 292.923C130.786 292.571 130.676 292.184 130.634 291.762C130.593 291.348 130.626 290.947 130.732 290.558C130.839 290.178 131.047 289.832 131.353 289.521C131.66 289.209 132.084 288.942 132.625 288.72C133.175 288.505 133.867 288.356 134.703 288.274Z" fill="white" fill-opacity="0.3"/>
<path d="M136.327 295.119C136.801 295.041 137.249 295.04 137.67 295.114C138.099 295.187 138.481 295.332 138.815 295.546C139.157 295.76 139.437 296.046 139.653 296.406C139.878 296.772 140.023 297.205 140.088 297.704C140.137 298.085 140.124 298.454 140.05 298.81C139.976 299.175 139.845 299.503 139.657 299.793C139.469 300.084 139.222 300.326 138.916 300.519C138.612 300.72 138.257 300.846 137.852 300.899C137.432 300.953 137.062 300.933 136.743 300.837C136.424 300.741 136.131 300.598 135.864 300.407C135.605 300.214 135.362 299.988 135.135 299.727C134.908 299.474 134.681 299.217 134.454 298.956C134.234 298.694 134 298.442 133.751 298.2C133.501 297.959 133.221 297.753 132.908 297.584L133.42 301.523L131.968 301.711L131.174 295.595C131.658 295.532 132.087 295.545 132.461 295.633C132.837 295.73 133.179 295.879 133.488 296.081C133.804 296.282 134.102 296.525 134.381 296.812C134.661 297.106 134.948 297.416 135.24 297.741C135.391 297.907 135.543 298.085 135.696 298.275C135.858 298.463 136.029 298.631 136.209 298.777C136.391 298.931 136.588 299.05 136.8 299.136C137.014 299.229 137.248 299.259 137.502 299.226C137.907 299.173 138.204 299.014 138.396 298.747C138.596 298.487 138.672 298.175 138.625 297.81C138.593 297.564 138.506 297.361 138.365 297.202C138.232 297.05 138.064 296.935 137.86 296.856C137.664 296.777 137.448 296.728 137.212 296.71C136.984 296.7 136.76 296.709 136.537 296.737L136.327 295.119Z" fill="white" fill-opacity="0.3"/>
<path d="M133.993 302.68L134.281 304.542L132.455 304.824L132.167 302.963L133.993 302.68Z" fill="white" fill-opacity="0.3"/>
<path fill-rule="evenodd" clip-rule="evenodd" d="M151.251 280.634C151.251 297.936 154.659 315.068 161.28 331.053C167.901 347.037 177.605 361.561 189.84 373.795C202.074 386.029 216.598 395.734 232.582 402.355C248.567 408.976 265.699 412.384 283.001 412.384C300.303 412.384 317.435 408.976 333.419 402.355C349.404 395.734 363.928 386.029 376.162 373.795C388.396 361.561 398.101 347.037 404.722 331.053C411.343 315.068 414.751 297.936 414.751 280.634H415.251C415.251 298.001 411.83 315.199 405.184 331.244C398.538 347.289 388.796 361.868 376.516 374.149C364.235 386.429 349.656 396.171 333.611 402.817C317.565 409.463 300.368 412.884 283.001 412.884C265.634 412.884 248.436 409.463 232.391 402.817C216.346 396.171 201.767 386.429 189.486 374.149C177.205 361.868 167.464 347.289 160.818 331.244C154.172 315.199 150.751 298.001 150.751 280.634H151.251Z" fill="white"/>
<g style="mix-blend-mode:difference">
<path d="M262.965 404.042L264.804 404.156C264.718 405.724 265.774 406.544 267.174 406.692C268.415 406.823 269.263 406.414 269.352 405.571C269.433 404.807 268.858 404.457 267.83 404.139L265.958 403.587C264.429 403.135 263.438 402.162 263.613 400.507C263.812 398.629 265.42 397.577 267.759 397.824C270.384 398.102 271.721 399.611 271.517 401.842L269.68 401.712C269.761 400.337 268.946 399.527 267.578 399.382C266.4 399.257 265.676 399.712 265.585 400.571C265.508 401.303 266.006 401.613 266.894 401.884L268.705 402.413C270.639 402.988 271.462 404.025 271.291 405.648C271.082 407.621 269.266 408.506 267.007 408.267C264.429 407.994 262.709 406.461 262.965 404.042Z" fill="white"/>
</g>
<g style="mix-blend-mode:difference">
<path d="M273.765 406.87L273.937 402.954L272.93 402.91L272.98 401.775L273.463 401.716C274.155 401.634 274.362 401.291 274.551 400.643L274.817 399.694L275.983 399.745L275.898 401.695L277.816 401.779L277.757 403.122L275.839 403.038L275.686 406.522C275.66 407.13 275.92 407.413 276.495 407.438C276.879 407.455 277.285 407.329 277.709 407.155L277.653 408.418C277.125 408.779 276.54 408.978 275.677 408.94C274.59 408.892 273.7 408.373 273.765 406.87Z" fill="white"/>
</g>
<g style="mix-blend-mode:difference">
<path d="M284.219 401.916L284.08 403.709C283.711 403.502 283.391 403.406 282.927 403.408C281.935 403.41 281.265 404.116 281.268 405.396L281.277 408.884L279.357 408.889L279.339 401.833L281.259 401.828L281.262 403.172C281.516 402.371 282.251 401.633 283.227 401.631C283.659 401.63 284.011 401.741 284.219 401.916Z" fill="white"/>
</g>
<g style="mix-blend-mode:difference">
<path d="M290.768 406.109L292.326 406.181C292.048 407.768 290.886 408.763 289.081 408.865C286.908 408.988 285.264 407.687 285.139 405.466C285.013 403.246 286.504 401.559 288.613 401.439C290.913 401.309 292.186 402.84 292.294 404.757L292.333 405.444L287.045 405.743C287.168 406.778 288.024 407.466 289.063 407.408C290.005 407.354 290.542 406.923 290.768 406.109ZM287.009 404.543L290.396 404.351C290.286 403.54 289.747 402.786 288.676 402.846C287.622 402.906 287.135 403.654 287.009 404.543Z" fill="white"/>
</g>
<g style="mix-blend-mode:difference">
<path d="M296.85 404.925L296.829 404.75L295.544 405.193C294.738 405.465 294.168 405.678 294.25 406.377C294.307 406.854 294.706 407.097 295.31 407.025C296.311 406.906 296.983 406.053 296.85 404.925ZM298.535 403.243L298.867 406.039C298.91 406.405 299.122 406.557 299.423 406.521C299.614 406.499 299.799 406.428 299.994 406.308L300.115 407.325C299.841 407.599 299.484 407.851 298.849 407.927C298.054 408.021 297.491 407.62 297.226 406.878C296.925 407.736 296.023 408.278 294.99 408.4C293.528 408.574 292.552 407.948 292.408 406.741C292.25 405.406 293.265 404.722 294.816 404.216L296.693 403.606L296.674 403.447C296.582 402.669 296.112 402.241 295.302 402.337C294.508 402.432 294.135 402.959 294.057 403.661L292.307 403.708C292.375 402.249 293.353 401.118 295.212 400.898C297.023 400.683 298.317 401.4 298.535 403.243Z" fill="white"/>
</g>
<g style="mix-blend-mode:difference">
<path d="M307.134 400.474C307.344 399.582 308.049 398.8 309.177 398.569C311.043 398.187 311.902 399.35 312.21 400.855L313.094 405.165L311.213 405.551L310.406 401.616C310.188 400.551 309.733 400.007 308.809 400.196C307.9 400.383 307.505 401.247 307.743 402.407L308.501 406.106L306.62 406.492L305.814 402.558C305.595 401.492 305.125 400.951 304.216 401.138C303.307 401.324 302.913 402.189 303.151 403.349L303.909 407.048L302.028 407.433L300.611 400.521L302.492 400.136L302.723 401.264C302.907 400.41 303.582 399.716 304.632 399.501C305.855 399.25 306.663 399.689 307.134 400.474Z" fill="white"/>
</g>
<g style="mix-blend-mode:difference">
<path d="M311.952 394.953L313.804 394.447L316.461 404.17L314.608 404.676L311.952 394.953Z" fill="white"/>
</g>
<g style="mix-blend-mode:difference">
<path d="M316.301 396.887L318.137 396.326L320.202 403.073L318.366 403.635L316.301 396.887ZM315.934 395.795L315.386 394.005L317.268 393.429L317.816 395.219L315.934 395.795Z" fill="white"/>
</g>
<g style="mix-blend-mode:difference">
<path d="M322.526 398.363L323.806 401.916L322 402.567L319.608 395.928L321.414 395.277L321.805 396.361C321.865 395.489 322.523 394.674 323.517 394.316C325.293 393.676 326.374 394.647 326.906 396.122L328.397 400.261L326.591 400.912L325.23 397.134C324.861 396.11 324.243 395.67 323.355 395.99C322.436 396.321 322.125 397.249 322.526 398.363Z" fill="white"/>
</g>
<g style="mix-blend-mode:difference">
<path d="M333.879 395.29L335.367 394.819C335.653 396.404 334.907 397.739 333.249 398.458C331.252 399.324 329.26 398.672 328.375 396.631C327.49 394.591 328.306 392.493 330.243 391.652C332.357 390.735 334.08 391.732 334.844 393.493L335.118 394.124L330.26 396.232C330.732 397.161 331.774 397.511 332.728 397.097C333.594 396.722 333.948 396.132 333.879 395.29ZM329.811 395.119L332.923 393.769C332.54 393.045 331.773 392.524 330.789 392.95C329.82 393.371 329.623 394.241 329.811 395.119Z" fill="white"/>
</g>
<g style="mix-blend-mode:difference">
<path d="M342.201 382.445L347.62 387.888L347.675 387.856L345.554 380.507L347.216 379.547L350.001 389.579L348.09 390.684L342.807 385.347L342.751 385.379L344.723 392.629L342.825 393.726L335.524 386.303L337.255 385.302L342.569 390.788L342.624 390.756L340.608 383.365L342.201 382.445Z" fill="white"/>
</g>
<g style="mix-blend-mode:difference">
<path d="M352.592 383.672C353.355 384.759 354.386 385.169 355.342 384.498C356.311 383.818 356.276 382.709 355.513 381.622C354.741 380.522 353.71 380.112 352.741 380.792C351.785 381.463 351.82 382.572 352.592 383.672ZM357.098 380.51C358.357 382.304 357.973 384.431 356.178 385.69C354.397 386.94 352.267 386.578 351.008 384.784C349.748 382.989 350.123 380.85 351.905 379.6C353.699 378.341 355.838 378.716 357.098 380.51Z" fill="white"/>
</g>
<g style="mix-blend-mode:difference">
<path d="M359.832 373.994L360.827 375.492C360.409 375.556 360.099 375.678 359.734 375.965C358.954 376.578 358.861 377.547 359.653 378.553L361.81 381.295L360.301 382.482L355.938 376.936L357.447 375.749L358.278 376.805C357.984 376.018 358.108 374.985 358.875 374.381C359.214 374.114 359.56 373.985 359.832 373.994Z" fill="white"/>
</g>
<g style="mix-blend-mode:difference">
<path d="M364.509 376.019L366.093 377.821L364.651 379.089L357.996 371.519L359.438 370.251L363.304 374.649L363.694 370.536L365.436 369.004L364.975 373.181L370.179 374.23L368.533 375.677L364.625 374.915L364.509 376.019Z" fill="white"/>
</g>
<g style="mix-blend-mode:difference">
<path d="M367.822 368.558L367.079 369.286L366.138 368.326L366.881 367.598L366.466 367.176C365.312 365.999 365.337 364.608 366.468 363.498C367.382 362.602 368.367 362.487 369.369 363.074L368.769 364.222C368.341 364.015 367.911 364.01 367.557 364.358C367.134 364.772 367.265 365.271 367.725 365.74L368.24 366.265L369.588 364.943L370.529 365.903L369.181 367.225L373.181 371.303L371.821 372.636L367.822 368.558Z" fill="white"/>
</g>
<g style="mix-blend-mode:difference">
<path d="M367.684 362.547L369.01 361.159L376.299 368.121L374.973 369.509L367.684 362.547Z" fill="white"/>
</g>
<g style="mix-blend-mode:difference">
<path d="M375.829 363.478C376.832 364.349 377.931 364.499 378.697 363.617C379.473 362.723 379.171 361.655 378.169 360.785C377.154 359.903 376.054 359.754 375.278 360.648C374.512 361.529 374.814 362.597 375.829 363.478ZM379.438 359.323C381.093 360.76 381.233 362.917 379.796 364.572C378.369 366.214 376.214 366.377 374.559 364.94C372.904 363.503 372.752 361.336 374.179 359.693C375.616 358.038 377.783 357.885 379.438 359.323Z" fill="white"/>
</g>
<g style="mix-blend-mode:difference">
<path d="M381.12 351.359L385.67 353.122L385.708 353.07L382.799 349.097L383.838 347.697L388.169 353.701L387.062 355.192L382.561 353.444L382.523 353.496L385.498 357.299L384.383 358.802L377.382 356.395L378.517 354.866L383.171 356.488L383.209 356.436L380.195 352.605L381.12 351.359Z" fill="white"/>
</g>
<g style="mix-blend-mode:difference">
<path d="M388.788 343.43L389.78 341.73C390.538 340.431 390.372 339.574 389.432 339.026C388.493 338.477 387.637 338.737 386.878 340.036L385.886 341.736L388.788 343.43ZM390.197 344.252L393.196 346.003L392.196 347.716L383.49 342.634L385.515 339.166C386.814 336.941 388.592 336.275 390.402 337.332C392.213 338.389 392.521 340.273 391.222 342.498L390.197 344.252Z" fill="white"/>
</g>
<g style="mix-blend-mode:difference">
<path d="M392.941 331.902L394.474 332.841C394.122 333.075 393.892 333.317 393.682 333.731C393.233 334.615 393.557 335.533 394.699 336.112L397.81 337.689L396.942 339.402L390.648 336.211L391.517 334.499L392.715 335.106C392.118 334.516 391.794 333.527 392.235 332.656C392.431 332.271 392.69 332.008 392.941 331.902Z" fill="white"/>
</g>
<g style="mix-blend-mode:difference">
<path d="M396.924 331.5C398.14 332.033 399.234 331.849 399.703 330.78C400.178 329.695 399.573 328.766 398.357 328.232C397.126 327.692 396.032 327.877 395.556 328.961C395.087 330.031 395.693 330.96 396.924 331.5ZM399.134 326.459C401.142 327.34 401.917 329.357 401.036 331.364C400.162 333.357 398.153 334.153 396.146 333.273C394.139 332.392 393.349 330.369 394.223 328.376C395.103 326.369 397.127 325.579 399.134 326.459Z" fill="white"/>
</g>
<g style="mix-blend-mode:difference">
<path d="M399.554 325.456C397.449 324.689 396.583 322.722 397.328 320.677C398.046 318.708 399.733 318.097 401.381 318.527L400.933 320.084C399.892 319.858 399.073 320.189 398.711 321.181C398.349 322.173 398.834 323.133 400.217 323.637C401.585 324.136 402.574 323.713 402.935 322.721C403.297 321.729 402.868 320.942 401.91 320.44L402.599 318.971C404.138 319.702 405.036 321.256 404.318 323.225C403.573 325.269 401.659 326.223 399.554 325.456Z" fill="white"/>
</g>
<g style="mix-blend-mode:difference">
<path d="M404.765 313.237L405.36 311.795C406.758 312.595 407.301 314.025 406.786 315.758C406.166 317.844 404.384 318.95 402.253 318.316C400.121 317.682 399.039 315.707 399.641 313.683C400.298 311.475 402.169 310.796 404.009 311.343L404.669 311.539L403.159 316.616C404.174 316.851 405.112 316.278 405.409 315.281C405.678 314.377 405.454 313.726 404.765 313.237ZM402.018 316.243L402.985 312.992C402.184 312.82 401.291 313.072 400.986 314.1C400.685 315.112 401.224 315.823 402.018 316.243Z" fill="white"/>
</g>
<g style="mix-blend-mode:difference">
<path d="M405.478 311.265L405.792 309.63C406.644 309.713 407.209 309.187 407.43 308.236C407.589 307.551 407.486 306.935 406.987 306.819C406.52 306.711 406.245 306.975 405.976 307.636L405.536 308.683C404.962 310.094 404.228 310.778 402.95 310.481C401.641 310.177 400.994 308.86 401.399 307.115C401.841 305.214 402.962 304.275 404.519 304.505L404.223 306.062C403.415 306.006 402.902 306.445 402.674 307.427C402.518 308.097 402.713 308.603 403.18 308.711C403.555 308.798 403.831 308.599 404.024 308.119L404.547 306.86C405.117 305.465 405.924 304.749 407.218 305.05C408.62 305.375 409.117 306.772 408.704 308.549C408.288 310.341 407.19 311.531 405.478 311.265Z" fill="white"/>
</g>
<g style="mix-blend-mode:difference">
<path d="M407.244 303.616L407.457 301.965C408.312 301.995 408.844 301.436 409.007 300.473C409.124 299.779 408.983 299.171 408.478 299.086C408.004 299.006 407.746 299.287 407.519 299.963L407.143 301.036C406.657 302.479 405.966 303.206 404.672 302.988C403.347 302.765 402.621 301.49 402.919 299.723C403.243 297.798 404.305 296.793 405.872 296.927L405.672 298.5C404.862 298.493 404.377 298.963 404.21 299.957C404.095 300.635 404.321 301.128 404.794 301.207C405.173 301.271 405.436 301.056 405.6 300.564L406.044 299.276C406.528 297.849 407.29 297.085 408.599 297.306C410.019 297.545 410.601 298.909 410.298 300.707C409.992 302.522 408.969 303.777 407.244 303.616Z" fill="white"/>
</g>
<g style="mix-blend-mode:difference">
<path d="M409.017 290.134L409.339 288.608C410.86 289.139 411.655 290.446 411.464 292.244C411.235 294.408 409.686 295.82 407.474 295.586C405.263 295.352 403.838 293.608 404.061 291.508C404.303 289.217 406.019 288.208 407.928 288.41L408.613 288.483L408.055 293.749C409.096 293.795 409.914 293.061 410.023 292.027C410.123 291.088 409.784 290.489 409.017 290.134ZM406.865 293.591L407.222 290.218C406.404 290.196 405.572 290.606 405.459 291.672C405.348 292.722 406.008 293.323 406.865 293.591Z" fill="white"/>
</g>
<g style="mix-blend-mode:difference">
<path d="M409.332 288.349L409.347 286.684C410.2 286.612 410.662 285.994 410.708 285.019C410.742 284.316 410.529 283.729 410.018 283.704C409.538 283.681 409.315 283.991 409.17 284.689L408.925 285.799C408.614 287.29 408.015 288.094 406.704 288.031C405.362 287.967 404.489 286.788 404.574 284.998C404.667 283.049 405.602 281.924 407.174 281.871L407.162 283.456C406.357 283.546 405.932 284.07 405.884 285.077C405.851 285.764 406.133 286.226 406.613 286.249C406.996 286.267 407.232 286.022 407.337 285.515L407.624 284.183C407.935 282.708 408.6 281.859 409.927 281.922C411.365 281.991 412.105 283.275 412.018 285.097C411.93 286.935 411.064 288.303 409.332 288.349Z" fill="white"/>
</g>
<path d="M159.342 283.12C159.102 283.135 158.811 283.161 158.469 283.198C158.134 283.234 157.81 283.302 157.495 283.401C157.189 283.508 156.93 283.66 156.718 283.857C156.505 284.055 156.409 284.325 156.43 284.668C156.452 285.02 156.58 285.281 156.815 285.451C157.05 285.629 157.326 285.748 157.642 285.809C157.967 285.877 158.297 285.909 158.634 285.905C158.978 285.9 159.27 285.89 159.51 285.875C159.653 285.867 159.825 285.852 160.024 285.832C160.231 285.819 160.442 285.79 160.656 285.745C160.87 285.708 161.079 285.655 161.283 285.587C161.496 285.526 161.683 285.438 161.844 285.324C162.006 285.21 162.133 285.07 162.227 284.904C162.322 284.738 162.362 284.539 162.347 284.308C162.333 284.076 162.269 283.884 162.156 283.73C162.043 283.585 161.899 283.465 161.725 283.372C161.552 283.286 161.356 283.222 161.137 283.179C160.925 283.136 160.711 283.109 160.494 283.098C160.277 283.087 160.065 283.084 159.857 283.089C159.657 283.101 159.485 283.112 159.342 283.12ZM159.238 281.42C160.052 281.37 160.74 281.408 161.301 281.534C161.87 281.668 162.331 281.864 162.683 282.123C163.036 282.382 163.295 282.691 163.461 283.05C163.628 283.416 163.724 283.807 163.749 284.222C163.775 284.646 163.727 285.045 163.606 285.421C163.485 285.805 163.265 286.147 162.947 286.447C162.629 286.755 162.195 287.006 161.646 287.2C161.105 287.401 160.428 287.527 159.613 287.576C158.775 287.627 158.067 287.586 157.49 287.453C156.921 287.328 156.46 287.131 156.107 286.864C155.755 286.605 155.495 286.292 155.329 285.926C155.163 285.567 155.067 285.176 155.041 284.753C155.016 284.338 155.063 283.938 155.184 283.554C155.306 283.178 155.525 282.84 155.844 282.54C156.162 282.24 156.596 281.989 157.144 281.788C157.702 281.593 158.399 281.471 159.238 281.42Z" fill="white" fill-opacity="0.3"/>
<path d="M159.809 289.965C159.57 289.986 159.28 290.02 158.939 290.067C158.606 290.113 158.283 290.19 157.972 290.298C157.669 290.413 157.414 290.572 157.207 290.775C157 290.979 156.912 291.252 156.943 291.594C156.974 291.945 157.109 292.202 157.349 292.365C157.589 292.537 157.868 292.648 158.186 292.7C158.512 292.759 158.844 292.782 159.18 292.768C159.524 292.754 159.815 292.736 160.054 292.714C160.198 292.701 160.369 292.682 160.567 292.656C160.775 292.638 160.984 292.603 161.197 292.552C161.41 292.509 161.617 292.45 161.819 292.376C162.03 292.309 162.215 292.216 162.373 292.098C162.531 291.979 162.655 291.836 162.744 291.667C162.833 291.499 162.868 291.299 162.847 291.068C162.827 290.837 162.757 290.646 162.64 290.496C162.523 290.354 162.376 290.238 162.199 290.15C162.023 290.069 161.825 290.01 161.605 289.974C161.393 289.936 161.178 289.915 160.961 289.911C160.744 289.906 160.531 289.909 160.323 289.919C160.124 289.937 159.953 289.952 159.809 289.965ZM159.658 288.268C160.471 288.195 161.159 288.214 161.723 288.325C162.296 288.442 162.762 288.626 163.121 288.875C163.481 289.124 163.749 289.425 163.925 289.779C164.102 290.141 164.209 290.529 164.246 290.943C164.283 291.365 164.247 291.766 164.136 292.145C164.026 292.533 163.816 292.881 163.506 293.189C163.197 293.506 162.771 293.769 162.227 293.978C161.692 294.195 161.019 294.339 160.206 294.411C159.369 294.486 158.66 294.465 158.08 294.348C157.508 294.238 157.042 294.055 156.681 293.798C156.322 293.549 156.054 293.244 155.877 292.882C155.701 292.528 155.594 292.14 155.556 291.718C155.519 291.303 155.556 290.903 155.666 290.515C155.777 290.136 155.987 289.792 156.297 289.483C156.606 289.175 157.033 288.912 157.576 288.695C158.127 288.485 158.821 288.342 159.658 288.268Z" fill="white" fill-opacity="0.3"/>
<path d="M156.585 300.015L156.386 298.323L161.797 297.687L161.55 295.59L162.825 295.44C162.852 295.735 162.905 296.014 162.984 296.279C163.073 296.55 163.193 296.786 163.345 296.986C163.507 297.192 163.703 297.358 163.936 297.484C164.168 297.61 164.446 297.678 164.769 297.688L164.927 299.035L156.585 300.015Z" fill="white" fill-opacity="0.3"/>
<path d="M158.778 302.582L159.038 304.448L157.208 304.703L156.948 302.837L158.778 302.582Z" fill="white" fill-opacity="0.3"/>
<path fill-rule="evenodd" clip-rule="evenodd" d="M172.251 280.999C172.251 295.543 175.116 309.945 180.681 323.381C186.247 336.818 194.405 349.027 204.689 359.311C214.973 369.595 227.182 377.753 240.619 383.319C254.056 388.885 268.457 391.749 283.001 391.749C297.545 391.749 311.946 388.885 325.383 383.319C338.82 377.753 351.029 369.595 361.313 359.311C371.597 349.027 379.755 336.818 385.321 323.381C390.886 309.945 393.751 295.543 393.751 280.999H394.251C394.251 295.609 391.373 310.075 385.783 323.573C380.192 337.07 371.997 349.334 361.667 359.665C351.336 369.995 339.072 378.19 325.574 383.781C312.077 389.372 297.61 392.249 283.001 392.249C268.391 392.249 253.925 389.372 240.427 383.781C226.93 378.19 214.666 369.995 204.335 359.665C194.005 349.334 185.81 337.07 180.219 323.573C174.628 310.075 171.751 295.609 171.751 280.999H172.251Z" fill="white"/>
</g>
<g style="mix-blend-mode:difference">
<path d="M485.935 217.472L494.099 218.314C492.163 226.562 485.767 231.444 476.256 231.444C464.81 231.444 456.562 224.121 456.562 212.423C456.562 200.724 464.894 192.307 476.004 192.307C488.123 192.307 494.351 200.724 494.351 210.823V214.443H466.493C466.83 219.913 471.122 223.785 476.593 223.785C481.559 223.785 484.504 221.681 485.935 217.472ZM466.662 208.13H484.504C484.168 203.838 481.559 199.714 475.92 199.714C470.365 199.714 467.587 203.501 466.662 208.13Z" fill="white"/>
<path d="M428.303 199.966C430.323 195.59 434.784 192.307 440.844 192.307C450.859 192.307 454.058 199.209 454.058 207.289V230.434H443.958V209.309C443.958 203.585 442.19 200.303 437.225 200.303C432.343 200.303 429.398 204.343 429.398 210.571V230.434H419.298V209.309C419.298 203.585 417.446 200.303 412.565 200.303C407.683 200.303 404.738 204.343 404.738 210.571V230.434H394.638V193.317H404.738V199.377C406.589 195.169 410.797 192.307 416.436 192.307C423.001 192.307 426.704 195.422 428.303 199.966Z" fill="white"/>
<path d="M367.74 212.591V211.16C367.74 204.427 363.616 200.219 357.893 200.219C351.581 200.219 348.299 204.848 348.299 211.918C348.299 218.903 351.581 223.532 357.893 223.532C363.616 223.532 367.74 219.408 367.74 212.591ZM367.656 230.434V223.364C365.973 227.825 361.428 231.444 354.863 231.444C343.838 231.444 338.115 222.859 338.115 211.918C338.115 200.976 343.838 192.307 354.863 192.307C361.428 192.307 365.973 195.927 367.656 200.471V177.411H377.756V230.434H367.656Z" fill="white"/>
<path d="M309.879 210.571V230.434H299.78V193.317H309.879V199.377C311.731 195.169 316.444 192.307 321.999 192.307C331.93 192.307 335.549 199.041 335.549 207.289V230.434H325.45V209.309C325.45 203.585 323.177 200.303 318.212 200.303C313.078 200.303 309.879 204.343 309.879 210.571Z" fill="white"/>
<path d="M284.493 213.18V193.318H294.593V230.434H284.493V224.374C282.558 228.666 278.181 231.444 272.542 231.444C262.695 231.444 259.328 224.795 259.328 216.547V193.318H269.428V214.527C269.428 220.166 271.532 223.532 276.498 223.532C281.464 223.532 284.493 219.492 284.493 213.18Z" fill="white"/>
<path d="M227.797 211.918C227.797 218.903 230.995 223.785 237.139 223.785C243.367 223.785 246.565 218.903 246.565 211.918C246.565 204.848 243.367 199.966 237.139 199.966C230.995 199.966 227.797 204.848 227.797 211.918ZM256.749 211.918C256.749 223.448 248.669 231.444 237.139 231.444C225.693 231.444 217.613 223.448 217.613 211.918C217.613 200.387 225.693 192.307 237.139 192.307C248.669 192.307 256.749 200.387 256.749 211.918Z" fill="white"/>
<path d="M199.366 200.387H193.895V193.317H199.366V190.203C199.366 181.534 204.584 176.401 212.916 176.401C219.649 176.401 223.773 179.599 225.372 185.49L218.892 187.594C218.05 185.238 216.451 183.639 213.842 183.639C210.728 183.639 209.381 185.995 209.381 189.446V193.317H219.313V200.387H209.381V230.434H199.366V200.387Z" fill="white"/>
<path d="M163.027 221.007V200.387H157.725V194.412L160.249 193.991C163.869 193.402 164.878 191.55 165.72 188.099L166.898 183.049H173.042V193.317H183.142V200.387H173.042V218.735C173.042 221.933 174.473 223.364 177.503 223.364C179.523 223.364 181.627 222.606 183.815 221.596V228.245C181.122 230.265 178.092 231.444 173.547 231.444C167.824 231.444 163.027 228.919 163.027 221.007Z" fill="white"/>
<path d="M124.876 218.146L133.629 217.809C134.219 222.27 137.585 224.542 142.719 224.542C146.422 224.542 149.452 223.28 149.452 220.586C149.452 218.062 147.769 216.967 144.066 216.378L138.174 215.368C130.263 214.106 125.886 211.16 125.886 204.259C125.886 197.189 131.862 192.307 141.288 192.307C151.556 192.307 157.7 196.936 158.374 205.185L150.041 205.521C149.368 201.313 146.506 199.209 141.204 199.209C137.585 199.209 135.229 200.808 135.229 203.333C135.229 205.353 136.575 206.531 139.268 206.952L146.338 208.13C154.165 209.393 158.794 212.675 158.794 219.661C158.794 227.235 152.23 231.444 142.635 231.444C132.956 231.444 125.55 227.235 124.876 218.146Z" fill="white"/>
<path d="M112.283 213.18V193.318H122.383V230.434H112.283V224.374C110.348 228.666 105.971 231.444 100.332 231.444C90.4851 231.444 87.1185 224.795 87.1185 216.547V193.318H97.2182V214.527C97.2182 220.166 99.3223 223.532 104.288 223.532C109.254 223.532 112.283 219.492 112.283 213.18Z" fill="white"/>
<path d="M377.801 150.472L385.965 151.314C384.029 159.562 377.633 164.444 368.122 164.444C356.676 164.444 348.428 157.121 348.428 145.423C348.428 133.724 356.76 125.307 367.87 125.307C379.99 125.307 386.218 133.724 386.218 143.823V147.443H358.36C358.696 152.913 362.989 156.785 368.459 156.785C373.425 156.785 376.371 154.681 377.801 150.472ZM358.528 141.13H376.371C376.034 136.838 373.425 132.714 367.786 132.714C362.231 132.714 359.454 136.501 358.528 141.13Z" fill="white"/>
<path d="M335.506 163.434H324.396L309.752 126.318H320.356L330.203 152.24H330.54L340.303 126.318H350.15L335.506 163.434Z" fill="white"/>
<path d="M300.859 130.61V110.411H309.612V130.61H300.859Z" fill="white"/>
<path d="M286.667 146.18V126.318H296.766V163.434H286.667V157.374C284.731 161.666 280.354 164.444 274.715 164.444C264.868 164.444 261.502 157.795 261.502 149.547V126.318H271.601V147.527C271.601 153.166 273.705 156.532 278.671 156.532C283.637 156.532 286.667 152.492 286.667 146.18Z" fill="white"/>
<path d="M229.97 144.918C229.97 151.903 233.168 156.785 239.312 156.785C245.54 156.785 248.738 151.903 248.738 144.918C248.738 137.848 245.54 132.966 239.312 132.966C233.168 132.966 229.97 137.848 229.97 144.918ZM258.922 144.918C258.922 156.448 250.842 164.444 239.312 164.444C227.866 164.444 219.786 156.448 219.786 144.918C219.786 133.387 227.866 125.307 239.312 125.307C250.842 125.307 258.922 133.387 258.922 144.918Z" fill="white"/>
<path d="M202.768 132.882L216.655 110.411H228.017L207.481 142.982V163.434H197.213V142.982L176.677 110.411H188.376L202.768 132.882Z" fill="white"/>
</g>
<g style="mix-blend-mode:difference">
<path d="M441.784 462.174L441.007 462.865L440.113 461.861L440.89 461.17L440.497 460.727C439.401 459.496 439.493 458.108 440.676 457.055C441.633 456.204 442.622 456.137 443.594 456.771L442.94 457.889C442.522 457.661 442.093 457.636 441.723 457.966C441.28 458.359 441.387 458.864 441.823 459.354L442.313 459.904L443.723 458.649L444.616 459.653L443.206 460.908L447.003 465.175L445.581 466.44L441.784 462.174Z" fill="white"/>
</g>
<g style="mix-blend-mode:difference">
<path d="M447.108 460.352C448.016 461.322 449.094 461.583 449.946 460.785C450.81 459.975 450.62 458.882 449.712 457.913C448.793 456.932 447.715 456.671 446.851 457.48C445.998 458.278 446.189 459.371 447.108 460.352ZM451.125 456.59C452.623 458.19 452.541 460.349 450.941 461.847C449.353 463.335 447.193 463.276 445.695 461.676C444.196 460.076 444.267 457.905 445.855 456.417C447.455 454.919 449.626 454.99 451.125 456.59Z" fill="white"/>
</g>
<g style="mix-blend-mode:difference">
<path d="M453.343 449.57L454.504 450.943C454.096 451.055 453.801 451.212 453.472 451.539C452.768 452.238 452.787 453.211 453.689 454.119L456.146 456.595L454.784 457.947L449.812 452.94L451.175 451.587L452.122 452.541C451.74 451.793 451.744 450.752 452.436 450.064C452.743 449.76 453.072 449.592 453.343 449.57Z" fill="white"/>
</g>
<g style="mix-blend-mode:difference">
<path d="M460.258 445.441C461.325 446.455 461.06 448.057 459.781 449.402C459.385 449.82 458.963 450.148 458.527 450.351C458.487 450.556 458.537 450.758 458.699 450.913C458.931 451.133 459.225 451.125 459.589 450.743L461.529 448.702C462.609 447.565 463.775 447.569 464.598 448.352C465.874 449.564 464.997 451.556 463.487 453.145C462.142 454.56 460.636 455.424 459.685 454.52C459.163 454.024 459.189 453.254 459.681 452.574C459.089 452.894 458.487 452.785 458.069 452.388C457.605 451.948 457.566 451.292 457.843 450.606C457.122 450.76 456.417 450.597 455.86 450.068C454.77 449.032 455.023 447.441 456.302 446.096C456.897 445.469 457.611 445.044 458.297 444.902C458.167 444.226 458.327 443.407 458.856 442.851L459.97 443.909C459.705 444.187 459.432 444.567 459.271 444.922C459.624 444.993 459.968 445.165 460.258 445.441ZM460.678 453.058C461.142 453.499 461.858 453.164 462.64 452.34C463.61 451.319 464.084 450.357 463.585 449.883C463.249 449.563 462.856 449.72 462.416 450.184L460.795 451.889C460.443 452.26 460.307 452.705 460.678 453.058ZM458.913 446.855C458.322 446.293 457.667 446.355 457.16 446.889C456.664 447.411 456.635 448.068 457.227 448.63C457.818 449.192 458.473 449.13 458.969 448.608C459.476 448.075 459.505 447.418 458.913 446.855Z" fill="white"/>
</g>
<g style="mix-blend-mode:difference">
<path d="M465.867 442.766L467.022 441.717C467.944 443.038 467.823 444.563 466.617 445.909C465.164 447.529 463.081 447.767 461.425 446.283C459.769 444.798 459.635 442.551 461.045 440.978C462.583 439.263 464.565 439.449 465.994 440.731L466.506 441.19L462.971 445.133C463.788 445.78 464.881 445.664 465.575 444.889C466.205 444.186 466.281 443.502 465.867 442.766ZM462.099 444.309L464.363 441.783C463.713 441.286 462.798 441.132 462.083 441.93C461.378 442.716 461.561 443.59 462.099 444.309Z" fill="white"/>
</g>
</g>
</svg>
