<svg width="564" height="564" viewBox="0 0 564 564" fill="none" xmlns="http://www.w3.org/2000/svg">
<mask id="mask0_963_7009" style="mask-type:alpha" maskUnits="userSpaceOnUse" x="150" y="150" width="264" height="264">
<path d="M282 414C354.902 414 414 354.902 414 282C414 209.098 354.902 150 282 150C209.098 150 150 209.098 150 282C150 354.902 209.098 414 282 414Z" fill="#262626"/>
<path d="M282 413.75C354.764 413.75 413.75 354.764 413.75 282C413.75 209.236 354.764 150.25 282 150.25C209.236 150.25 150.25 209.236 150.25 282C150.25 354.764 209.236 413.75 282 413.75Z" stroke="white" stroke-opacity="0.3" stroke-width="0.5"/>
</mask>
<g mask="url(#mask0_963_7009)">
<path d="M564 282C564 437.744 437.744 564 282 564C126.256 564 0 437.744 0 282C0 126.256 126.256 0 282 0C437.744 0 564 126.256 564 282Z" fill="#262626"/>
<path fill-rule="evenodd" clip-rule="evenodd" d="M282 563.5C437.468 563.5 563.5 437.468 563.5 282C563.5 126.532 437.468 0.5 282 0.5C126.532 0.5 0.5 126.532 0.5 282C0.5 437.468 126.532 563.5 282 563.5ZM282 564C437.744 564 564 437.744 564 282C564 126.256 437.744 0 282 0C126.256 0 0 126.256 0 282C0 437.744 126.256 564 282 564Z" fill="white" fill-opacity="0.3"/>
<g style="mix-blend-mode:difference">
<path fill-rule="evenodd" clip-rule="evenodd" d="M30.25 280.635C30.25 313.826 36.7876 346.693 49.4894 377.358C62.1913 408.023 80.8087 435.886 104.279 459.356C127.749 482.826 155.612 501.443 186.277 514.145C216.942 526.847 249.808 533.385 283 533.385C316.192 533.385 349.058 526.847 379.723 514.145C410.388 501.443 438.251 482.826 461.721 459.356C485.191 435.886 503.809 408.023 516.511 377.358C529.212 346.693 535.75 313.826 535.75 280.635H536.25C536.25 313.892 529.7 346.824 516.973 377.549C504.246 408.275 485.591 436.193 462.075 459.71C438.558 483.226 410.64 501.88 379.915 514.607C349.189 527.334 316.257 533.885 283 533.885C249.743 533.885 216.811 527.334 186.085 514.607C155.36 501.88 127.442 483.226 103.925 459.71C80.4088 436.193 61.7545 408.275 49.0275 377.549C36.3005 346.824 29.75 313.892 29.75 280.635H30.25Z" fill="white"/>
<path fill-rule="evenodd" clip-rule="evenodd" d="M55.2491 280.636C55.2491 310.545 61.14 340.16 72.5855 367.792C84.031 395.424 100.807 420.531 121.955 441.68C143.104 462.828 168.211 479.604 195.843 491.05C223.475 502.495 253.091 508.386 282.999 508.386C312.908 508.386 342.523 502.495 370.155 491.05C397.787 479.604 422.894 462.828 444.043 441.68C465.191 420.531 481.967 395.424 493.413 367.792C504.858 340.16 510.749 310.545 510.749 280.636H511.249C511.249 310.61 505.345 340.291 493.875 367.984C482.404 395.676 465.591 420.838 444.396 442.033C423.201 463.228 398.039 480.041 370.347 491.512C342.654 502.982 312.973 508.886 282.999 508.886C253.025 508.886 223.344 502.982 195.652 491.512C167.959 480.041 142.797 463.228 121.602 442.033C100.407 420.838 83.5942 395.676 72.1236 367.984C60.6529 340.291 54.7491 310.61 54.7491 280.636H55.2491Z" fill="white"/>
<path fill-rule="evenodd" clip-rule="evenodd" d="M79.2491 280.636C79.2491 307.392 84.5192 333.887 94.7586 358.607C104.998 383.327 120.006 405.789 138.926 424.709C157.846 443.629 180.307 458.637 205.027 468.876C229.747 479.115 256.242 484.386 282.999 484.386C309.756 484.386 336.251 479.115 360.971 468.876C385.691 458.637 408.152 443.629 427.072 424.709C445.992 405.789 461 383.327 471.24 358.607C481.479 333.887 486.749 307.392 486.749 280.636H487.249C487.249 307.458 481.966 334.018 471.701 358.799C461.437 383.579 446.392 406.096 427.426 425.062C408.459 444.029 385.943 459.074 361.162 469.338C336.381 479.603 309.822 484.886 282.999 484.886C256.177 484.886 229.617 479.603 204.836 469.338C180.055 459.073 157.539 444.029 138.573 425.062C119.606 406.096 104.561 383.579 94.2967 358.799C84.0322 334.018 78.7491 307.458 78.7491 280.636H79.2491Z" fill="white"/>
<path fill-rule="evenodd" clip-rule="evenodd" d="M103.251 280.635C103.251 304.24 107.901 327.614 116.934 349.422C125.967 371.23 139.207 391.046 155.899 407.737C172.59 424.429 192.406 437.669 214.214 446.702C236.022 455.735 259.396 460.385 283.001 460.385C306.606 460.385 329.98 455.735 351.789 446.702C373.597 437.669 393.412 424.429 410.104 407.737C426.795 391.046 440.035 371.23 449.069 349.422C458.102 327.614 462.751 304.24 462.751 280.635H463.251C463.251 304.306 458.589 327.745 449.53 349.613C440.472 371.482 427.195 391.353 410.457 408.091C393.719 424.829 373.849 438.106 351.98 447.164C330.111 456.222 306.672 460.885 283.001 460.885C259.33 460.885 235.891 456.222 214.023 447.164C192.154 438.106 172.283 424.829 155.545 408.091C138.807 391.353 125.53 371.482 116.472 349.613C107.414 327.745 102.751 304.306 102.751 280.635H103.251Z" fill="white"/>
<g style="mix-blend-mode:difference">
<path d="M390.27 407.472L391.754 406.132L397.395 412.378L401.349 408.807L402.464 410.042L397.026 414.953L390.27 407.472Z" fill="white"/>
</g>
<g style="mix-blend-mode:difference">
<path d="M404.646 403.61L404.522 403.486L403.786 404.629C403.322 405.341 403.006 405.862 403.503 406.36C403.843 406.699 404.307 406.643 404.737 406.213C405.449 405.5 405.449 404.414 404.646 403.61ZM404.929 401.246L406.92 403.237C407.18 403.497 407.441 403.486 407.656 403.271C407.791 403.135 407.893 402.966 407.972 402.751L408.696 403.475C408.651 403.859 408.527 404.278 408.074 404.731C407.509 405.296 406.818 405.33 406.151 404.912C406.445 405.771 406.072 406.756 405.336 407.491C404.295 408.532 403.141 408.645 402.282 407.785C401.331 406.835 401.705 405.67 402.61 404.312L403.707 402.671L403.594 402.558C403.04 402.004 402.406 401.959 401.829 402.536C401.263 403.101 401.297 403.746 401.671 404.346L400.324 405.466C399.476 404.278 399.544 402.785 400.867 401.461C402.157 400.171 403.617 399.934 404.929 401.246Z" fill="white"/>
</g>
<g style="mix-blend-mode:difference">
<path d="M410.295 397.323L407.502 394.782L408.794 393.362L414.013 398.11L412.721 399.53L411.869 398.755C412.225 399.576 412.056 400.547 411.334 401.34C410.075 402.724 408.709 402.347 407.549 401.292L404.282 398.321L405.574 396.9L408.557 399.614C409.35 400.335 410.093 400.47 410.728 399.771C411.363 399.073 411.183 398.13 410.295 397.323Z" fill="white"/>
</g>
<g style="mix-blend-mode:difference">
<path d="M414.049 392.269L416.968 394.664L415.749 396.148L410.295 391.672L411.513 390.188L412.404 390.919C412.009 390.139 412.156 389.101 412.826 388.285C414.024 386.826 415.45 387.106 416.662 388.101L420.063 390.892L418.845 392.376L415.741 389.828C414.9 389.138 414.143 389.076 413.545 389.806C412.925 390.56 413.133 391.518 414.049 392.269Z" fill="white"/>
</g>
<path fill-rule="evenodd" clip-rule="evenodd" d="M127.251 280.634C127.251 301.087 131.279 321.34 139.106 340.237C146.934 359.133 158.406 376.303 172.869 390.766C187.332 405.228 204.501 416.701 223.398 424.528C242.294 432.355 262.547 436.384 283.001 436.384C303.454 436.384 323.707 432.355 342.604 424.528C361.5 416.701 378.67 405.228 393.133 390.766C407.595 376.303 419.068 359.133 426.895 340.237C434.722 321.34 438.751 301.087 438.751 280.634H439.251C439.251 301.153 435.209 321.471 427.357 340.428C419.505 359.385 407.995 376.61 393.486 391.119C378.977 405.628 361.752 417.138 342.795 424.99C323.838 432.842 303.52 436.884 283.001 436.884C262.482 436.884 242.164 432.842 223.206 424.99C204.249 417.138 187.024 405.628 172.515 391.119C158.006 376.61 146.497 359.385 138.645 340.428C130.792 321.471 126.751 301.153 126.751 280.634H127.251Z" fill="white"/>
<g style="mix-blend-mode:difference">
<path d="M166.844 360.081L167.982 361.725L159.693 367.461L158.555 365.816L166.844 360.081Z" fill="white"/>
</g>
<g style="mix-blend-mode:difference">
<path d="M169.153 370.51C170.045 370.303 171.058 370.59 171.765 371.5C172.932 373.004 172.269 374.289 171.056 375.231L167.58 377.929L166.403 376.413L169.575 373.95C170.434 373.283 170.721 372.635 170.142 371.889C169.573 371.156 168.623 371.184 167.688 371.911L164.705 374.226L163.528 372.71L166.7 370.247C167.559 369.58 167.836 368.919 167.267 368.186C166.698 367.453 165.748 367.481 164.813 368.208L161.83 370.523L160.653 369.006L166.226 364.679L167.404 366.196L166.494 366.903C167.342 366.69 168.262 366.988 168.919 367.835C169.685 368.821 169.649 369.74 169.153 370.51Z" fill="white"/>
</g>
<g style="mix-blend-mode:difference">
<path d="M172.357 377.755L172.154 377.936C171.188 378.799 171.115 379.895 171.84 380.706C172.65 381.612 173.722 381.491 174.712 380.606C175.714 379.711 175.955 378.659 175.144 377.752C174.419 376.941 173.311 376.902 172.357 377.755ZM170.638 379.313L167.679 381.957L166.4 380.525L173.617 374.075L174.897 375.506L173.883 376.412C174.74 376.075 175.818 376.249 176.66 377.191C178.046 378.742 177.553 380.664 176.003 382.05C174.452 383.436 172.499 383.7 171.113 382.149C170.271 381.207 170.219 380.116 170.638 379.313Z" fill="white"/>
</g>
<g style="mix-blend-mode:difference">
<path d="M181.894 378.671L183.234 380.046L176.019 387.084L174.678 385.71L181.894 378.671Z" fill="white"/>
</g>
<g style="mix-blend-mode:difference">
<path d="M182.432 389.897L183.445 391.084C182.097 391.965 180.576 391.798 179.268 390.55C177.693 389.049 177.518 386.959 179.053 385.349C180.587 383.74 182.838 383.675 184.366 385.132C186.034 386.722 185.787 388.697 184.462 390.086L183.988 390.584L180.154 386.93C179.483 387.727 179.566 388.823 180.319 389.54C181.002 390.192 181.683 390.289 182.432 389.897ZM181.005 386.084L183.461 388.424C183.977 387.789 184.159 386.88 183.383 386.14C182.619 385.411 181.74 385.568 181.005 386.084Z" fill="white"/>
</g>
<g style="mix-blend-mode:difference">
<path d="M190.852 392.865C191.68 392.473 192.731 392.538 193.615 393.277C195.076 394.498 194.701 395.894 193.717 397.073L190.895 400.449L189.422 399.218L191.997 396.136C192.695 395.302 192.837 394.607 192.112 394.002C191.4 393.407 190.478 393.637 189.719 394.546L187.298 397.443L185.824 396.212L188.399 393.131C189.097 392.296 189.227 391.591 188.515 390.996C187.803 390.401 186.881 390.631 186.121 391.54L183.7 394.438L182.227 393.206L186.751 387.792L188.225 389.023L187.486 389.907C188.269 389.519 189.232 389.614 190.054 390.302C191.012 391.102 191.173 392.007 190.852 392.865Z" fill="white"/>
</g>
<g style="mix-blend-mode:difference">
<path d="M198.154 402.671L199.317 403.711C198.099 404.765 196.57 404.803 195.106 403.743C193.344 402.466 192.89 400.419 194.195 398.618C195.499 396.817 197.721 396.45 199.431 397.689C201.297 399.041 201.318 401.031 200.191 402.586L199.788 403.143L195.499 400.037C194.94 400.916 195.169 401.991 196.012 402.601C196.776 403.155 197.464 403.159 198.154 402.671ZM196.228 399.084L198.975 401.073C199.402 400.375 199.46 399.449 198.592 398.82C197.737 398.201 196.887 398.474 196.228 399.084Z" fill="white"/>
</g>
<g style="mix-blend-mode:difference">
<path d="M202.595 404.118L200.551 407.293L198.936 406.254L202.756 400.321L204.37 401.36L203.747 402.329C204.476 401.847 205.523 401.875 206.411 402.446C207.999 403.468 207.884 404.917 207.036 406.235L204.654 409.935L203.039 408.896L205.213 405.519C205.802 404.604 205.777 403.846 204.983 403.335C204.162 402.806 203.236 403.123 202.595 404.118Z" fill="white"/>
</g>
<g style="mix-blend-mode:difference">
<path d="M207.387 409.479L209.349 406.086L208.477 405.581L209.045 404.598L209.501 404.769C210.153 405.016 210.495 404.808 210.962 404.32L211.636 403.601L212.648 404.186L211.67 405.876L213.333 406.837L212.66 408L210.998 407.039L209.252 410.058C208.947 410.585 209.046 410.956 209.545 411.245C209.878 411.437 210.296 411.513 210.752 411.555L210.119 412.649C209.484 412.725 208.873 412.631 208.125 412.198C207.183 411.653 206.634 410.781 207.387 409.479Z" fill="white"/>
</g>
<g style="mix-blend-mode:difference">
<path d="M215.941 412.268L217.635 412.991C217.03 414.44 217.75 415.566 219.02 416.174C220.145 416.713 221.081 416.611 221.447 415.847C221.779 415.154 221.355 414.632 220.493 413.988L218.913 412.841C217.624 411.904 217.016 410.654 217.735 409.154C218.55 407.451 220.418 406.997 222.539 408.013C224.92 409.154 225.674 411.023 224.735 413.057L223.048 412.32C223.585 411.051 223.088 410.015 221.847 409.42C220.779 408.909 219.945 409.095 219.572 409.874C219.254 410.538 219.619 410.997 220.366 411.55L221.894 412.654C223.525 413.843 223.954 415.096 223.249 416.568C222.392 418.357 220.384 418.584 218.335 417.602C215.998 416.483 214.89 414.462 215.941 412.268Z" fill="white"/>
</g>
<g style="mix-blend-mode:difference">
<path d="M224.011 416.199C224.865 414.128 226.867 413.344 228.878 414.173C230.816 414.972 231.357 416.683 230.859 418.312L229.322 417.8C229.591 416.769 229.294 415.937 228.317 415.534C227.341 415.132 226.362 415.576 225.801 416.937C225.246 418.283 225.628 419.289 226.604 419.691C227.58 420.093 228.384 419.698 228.925 418.761L230.365 419.51C229.57 421.017 227.981 421.851 226.043 421.052C224.031 420.223 223.157 418.27 224.011 416.199Z" fill="white"/>
</g>
<g style="mix-blend-mode:difference">
<path d="M339.273 418.744L339.207 418.58L338.08 419.339C337.373 419.811 336.876 420.164 337.137 420.818C337.315 421.264 337.763 421.395 338.328 421.17C339.264 420.797 339.693 419.799 339.273 418.744ZM340.466 416.683L341.509 419.299C341.645 419.641 341.889 419.733 342.171 419.62C342.35 419.549 342.51 419.434 342.668 419.267L343.047 420.219C342.854 420.554 342.574 420.889 341.979 421.126C341.236 421.423 340.589 421.181 340.141 420.533C340.072 421.439 339.34 422.196 338.374 422.581C337.007 423.126 335.902 422.775 335.451 421.645C334.954 420.397 335.757 419.473 337.125 418.584L338.781 417.51L338.721 417.361C338.431 416.633 337.867 416.341 337.109 416.643C336.366 416.94 336.142 417.546 336.248 418.244L334.569 418.741C334.259 417.315 334.911 415.97 336.65 415.276C338.344 414.601 339.779 414.959 340.466 416.683Z" fill="white"/>
</g>
<g style="mix-blend-mode:difference">
<path d="M342.526 413.041L344.276 412.251L347.18 418.681L345.43 419.472L342.526 413.041ZM342.022 412.005L341.252 410.299L343.045 409.489L343.816 411.195L342.022 412.005Z" fill="white"/>
</g>
<g style="mix-blend-mode:difference">
<path d="M348.7 413.802L350.394 417.177L348.678 418.038L345.512 411.732L347.228 410.871L347.745 411.901C347.701 411.028 348.257 410.139 349.201 409.666C350.888 408.819 352.078 409.654 352.781 411.055L354.755 414.988L353.039 415.849L351.237 412.26C350.749 411.288 350.083 410.924 349.24 411.347C348.367 411.785 348.168 412.744 348.7 413.802Z" fill="white"/>
</g>
<g style="mix-blend-mode:difference">
<path d="M358.06 409.649L357.972 409.496L356.963 410.407C356.329 410.973 355.887 411.393 356.238 412.003C356.476 412.42 356.939 412.486 357.466 412.184C358.341 411.682 358.625 410.634 358.06 409.649ZM358.951 407.44L360.352 409.883C360.535 410.202 360.789 410.259 361.053 410.108C361.22 410.013 361.362 409.876 361.495 409.689L362.004 410.577C361.86 410.936 361.631 411.308 361.075 411.626C360.381 412.024 359.706 411.877 359.172 411.298C359.231 412.205 358.613 413.057 357.711 413.575C356.434 414.307 355.29 414.114 354.685 413.06C354.017 411.894 354.682 410.867 355.911 409.793L357.399 408.497L357.319 408.358C356.929 407.678 356.33 407.468 355.622 407.874C354.928 408.272 354.792 408.904 354.995 409.58L353.403 410.309C352.895 408.941 353.351 407.517 354.975 406.585C356.557 405.678 358.028 405.83 358.951 407.44Z" fill="white"/>
</g>
<g style="mix-blend-mode:difference">
<path d="M363.367 405.748L363.516 405.975C364.226 407.06 365.298 407.295 366.208 406.699C367.226 406.033 367.266 404.955 366.538 403.844C365.802 402.719 364.798 402.325 363.781 402.991C362.87 403.587 362.666 404.677 363.367 405.748ZM364.562 407.719L365.013 409.05L363.781 409.856L358.26 401.423L359.866 400.371L362.268 404.039C362.062 403.141 362.395 402.101 363.452 401.408C365.193 400.269 367.019 401.043 368.158 402.783C369.297 404.524 369.268 406.494 367.501 407.651C366.47 408.325 365.352 408.254 364.562 407.719Z" fill="white"/>
</g>
<g style="mix-blend-mode:difference">
<path d="M364.976 396.967L366.539 395.851L372.396 404.055L370.833 405.171L364.976 396.967Z" fill="white"/>
</g>
<g style="mix-blend-mode:difference">
<path d="M376.962 397.531L378.286 396.706C378.957 398.17 378.565 399.649 377.137 400.758C375.418 402.092 373.326 401.954 371.962 400.197C370.598 398.441 370.868 396.206 372.537 394.91C374.357 393.497 376.273 394.035 377.45 395.552L377.872 396.095L373.689 399.343C374.377 400.125 375.473 400.206 376.295 399.568C377.04 398.99 377.238 398.33 376.962 397.531ZM372.978 398.376L375.658 396.295C375.107 395.69 374.234 395.375 373.388 396.032C372.553 396.68 372.578 397.572 372.978 398.376Z" fill="white"/>
</g>
<g style="mix-blend-mode:difference">
<path d="M388.033 387.441C389.214 388.725 388.93 390.377 387.199 391.97L383.715 395.177L376.889 387.76L380.185 384.726C382.057 383.004 383.595 383.068 384.711 384.28C385.48 385.116 385.456 386.225 384.775 387.091C385.821 386.432 387.058 386.382 388.033 387.441ZM384.077 388.908L382.193 390.641L384.057 392.666L385.94 390.933C386.859 390.088 386.949 389.287 386.385 388.675C385.811 388.051 384.995 388.063 384.077 388.908ZM379.419 387.627L381.164 389.523L382.93 387.898C383.813 387.085 383.832 386.35 383.323 385.797C382.813 385.243 382.068 385.19 381.185 386.002L379.419 387.627Z" fill="white"/>
</g>
<g style="mix-blend-mode:difference">
<path d="M391.275 383.367L388.561 380.742L389.895 379.362L394.967 384.267L393.632 385.647L392.804 384.846C393.135 385.678 392.936 386.643 392.191 387.414C390.889 388.76 389.536 388.341 388.409 387.251L385.235 384.18L386.569 382.8L389.468 385.604C390.238 386.349 390.976 386.506 391.633 385.828C392.289 385.149 392.137 384.201 391.275 383.367Z" fill="white"/>
</g>
<g style="mix-blend-mode:difference">
<path d="M394.408 381.477L395.45 380.178C396.164 380.648 396.909 380.448 397.549 379.71C398.01 379.178 398.206 378.586 397.819 378.251C397.456 377.936 397.09 378.042 396.544 378.5L395.665 379.221C394.499 380.2 393.53 380.462 392.539 379.602C391.524 378.722 391.566 377.256 392.74 375.902C394.019 374.427 395.449 374.121 396.718 375.051L395.728 376.29C395.04 375.863 394.381 376.012 393.721 376.773C393.271 377.293 393.207 377.831 393.569 378.145C393.86 378.397 394.197 378.35 394.592 378.016L395.642 377.147C396.798 376.18 397.846 375.923 398.849 376.793C399.937 377.737 399.724 379.204 398.53 380.582C397.324 381.972 395.798 382.512 394.408 381.477Z" fill="white"/>
</g>
<g style="mix-blend-mode:difference">
<path d="M396.376 371.902L397.575 370.402L403.087 374.807L401.888 376.306L396.376 371.902ZM395.456 371.207L393.994 370.039L395.222 368.501L396.685 369.67L395.456 371.207Z" fill="white"/>
</g>
<g style="mix-blend-mode:difference">
<path d="M402.186 369.823L405.228 372.06L404.09 373.607L398.406 369.426L399.543 367.879L400.471 368.562C400.035 367.804 400.128 366.76 400.754 365.91C401.872 364.389 403.311 364.593 404.574 365.522L408.119 368.129L406.981 369.676L403.746 367.296C402.87 366.651 402.111 366.63 401.552 367.39C400.973 368.177 401.232 369.121 402.186 369.823Z" fill="white"/>
</g>
<g style="mix-blend-mode:difference">
<path d="M410.095 360.736L411.079 359.524C412.19 360.691 412.301 362.216 411.311 363.729C410.119 365.55 408.096 366.1 406.235 364.883C404.374 363.665 403.902 361.464 405.058 359.696C406.32 357.768 408.307 357.654 409.914 358.705L410.489 359.081L407.59 363.513C408.495 364.029 409.558 363.749 410.127 362.879C410.644 362.089 410.616 361.401 410.095 360.736ZM406.603 362.829L408.46 359.991C407.742 359.598 406.815 359.584 406.228 360.481C405.65 361.364 405.963 362.2 406.603 362.829Z" fill="white"/>
</g>
<g style="mix-blend-mode:difference">
<path d="M411.311 359.111L412.094 357.641C412.883 357.972 413.579 357.637 414.071 356.794C414.425 356.185 414.508 355.567 414.066 355.309C413.651 355.067 413.31 355.239 412.859 355.791L412.129 356.661C411.164 357.84 410.261 358.276 409.127 357.615C407.967 356.938 407.737 355.489 408.64 353.941C409.623 352.255 410.972 351.69 412.391 352.369L411.648 353.77C410.893 353.477 410.273 353.745 409.765 354.616C409.419 355.211 409.456 355.751 409.87 355.992C410.202 356.186 410.524 356.078 410.851 355.676L411.722 354.628C412.679 353.463 413.661 353.017 414.808 353.686C416.052 354.412 416.115 355.893 415.196 357.468C414.269 359.058 412.868 359.871 411.311 359.111Z" fill="white"/>
</g>
<g style="mix-blend-mode:difference">
<path d="M415.205 352.432L415.911 350.924C416.716 351.213 417.393 350.842 417.841 349.975C418.163 349.349 418.214 348.727 417.759 348.493C417.333 348.272 417.001 348.461 416.579 349.036L415.894 349.943C414.992 351.17 414.112 351.652 412.946 351.051C411.752 350.434 411.448 348.999 412.27 347.407C413.165 345.672 414.483 345.038 415.935 345.643L415.265 347.08C414.496 346.827 413.891 347.127 413.429 348.022C413.113 348.634 413.178 349.171 413.604 349.392C413.946 349.568 414.262 349.443 414.568 349.024L415.383 347.933C416.279 346.721 417.237 346.225 418.417 346.834C419.697 347.494 419.836 348.97 418.999 350.591C418.155 352.226 416.799 353.11 415.205 352.432Z" fill="white"/>
</g>
<g style="mix-blend-mode:difference">
<path d="M418.613 339.149L419.37 337.332C419.948 335.944 419.669 335.117 418.664 334.698C417.66 334.28 416.847 334.652 416.268 336.04L415.512 337.857L418.613 339.149ZM420.12 339.776L423.325 341.111L422.562 342.943L413.257 339.067L414.801 335.36C415.792 332.982 417.465 332.084 419.4 332.89C421.335 333.696 421.892 335.523 420.901 337.901L420.12 339.776Z" fill="white"/>
</g>
<path fill-rule="evenodd" clip-rule="evenodd" d="M151.251 280.634C151.251 297.936 154.659 315.068 161.28 331.053C167.901 347.037 177.605 361.561 189.84 373.795C202.074 386.029 216.598 395.734 232.582 402.355C248.567 408.976 265.699 412.384 283.001 412.384C300.303 412.384 317.435 408.976 333.419 402.355C349.404 395.734 363.928 386.029 376.162 373.795C388.396 361.561 398.101 347.037 404.722 331.053C411.343 315.068 414.751 297.936 414.751 280.634H415.251C415.251 298.001 411.83 315.199 405.184 331.244C398.538 347.289 388.796 361.868 376.516 374.149C364.235 386.429 349.656 396.171 333.611 402.817C317.565 409.463 300.368 412.884 283.001 412.884C265.634 412.884 248.436 409.463 232.391 402.817C216.346 396.171 201.767 386.429 189.486 374.149C177.205 361.868 167.464 347.289 160.818 331.244C154.172 315.199 150.751 298.001 150.751 280.634H151.251Z" fill="white"/>
<g style="mix-blend-mode:difference">
<path d="M262.965 404.042L264.803 404.156C264.718 405.724 265.774 406.544 267.174 406.692C268.415 406.823 269.263 406.414 269.352 405.571C269.433 404.807 268.858 404.457 267.83 404.139L265.958 403.587C264.429 403.135 263.438 402.162 263.613 400.507C263.812 398.629 265.42 397.577 267.759 397.824C270.384 398.102 271.72 399.611 271.516 401.842L269.68 401.712C269.761 400.337 268.946 399.527 267.578 399.382C266.4 399.257 265.676 399.712 265.585 400.571C265.508 401.303 266.006 401.613 266.894 401.884L268.705 402.413C270.639 402.988 271.462 404.025 271.291 405.648C271.082 407.621 269.266 408.506 267.007 408.267C264.429 407.994 262.709 406.461 262.965 404.042Z" fill="white"/>
</g>
<g style="mix-blend-mode:difference">
<path d="M273.765 406.87L273.937 402.954L272.93 402.91L272.98 401.775L273.463 401.716C274.155 401.634 274.362 401.291 274.551 400.643L274.817 399.694L275.983 399.745L275.898 401.695L277.816 401.779L277.757 403.122L275.839 403.038L275.686 406.522C275.66 407.13 275.92 407.413 276.495 407.438C276.879 407.455 277.285 407.329 277.709 407.155L277.653 408.418C277.125 408.779 276.54 408.978 275.677 408.94C274.59 408.892 273.699 408.373 273.765 406.87Z" fill="white"/>
</g>
<g style="mix-blend-mode:difference">
<path d="M284.219 401.916L284.08 403.709C283.711 403.502 283.391 403.406 282.927 403.408C281.935 403.41 281.265 404.116 281.268 405.396L281.277 408.884L279.357 408.889L279.339 401.833L281.259 401.828L281.262 403.172C281.516 402.371 282.251 401.633 283.227 401.631C283.659 401.63 284.011 401.741 284.219 401.916Z" fill="white"/>
</g>
<g style="mix-blend-mode:difference">
<path d="M290.768 406.109L292.326 406.181C292.048 407.768 290.886 408.763 289.081 408.865C286.908 408.988 285.264 407.687 285.139 405.466C285.013 403.246 286.504 401.559 288.613 401.439C290.913 401.309 292.185 402.84 292.294 404.757L292.333 405.444L287.045 405.743C287.168 406.778 288.024 407.466 289.062 407.408C290.005 407.354 290.541 406.923 290.768 406.109ZM287.009 404.543L290.396 404.351C290.286 403.54 289.746 402.786 288.676 402.846C287.622 402.906 287.135 403.654 287.009 404.543Z" fill="white"/>
</g>
<g style="mix-blend-mode:difference">
<path d="M296.849 404.925L296.829 404.75L295.544 405.193C294.738 405.465 294.168 405.678 294.25 406.377C294.307 406.854 294.706 407.097 295.31 407.025C296.311 406.906 296.983 406.053 296.849 404.925ZM298.535 403.243L298.867 406.039C298.91 406.405 299.121 406.557 299.423 406.521C299.614 406.499 299.799 406.428 299.994 406.308L300.115 407.325C299.841 407.599 299.484 407.851 298.849 407.927C298.054 408.021 297.491 407.62 297.226 406.878C296.925 407.736 296.023 408.278 294.99 408.4C293.528 408.574 292.552 407.948 292.408 406.741C292.25 405.406 293.265 404.722 294.816 404.216L296.693 403.606L296.674 403.447C296.582 402.669 296.112 402.241 295.302 402.337C294.508 402.432 294.135 402.959 294.057 403.661L292.306 403.708C292.375 402.249 293.353 401.118 295.212 400.898C297.023 400.683 298.317 401.4 298.535 403.243Z" fill="white"/>
</g>
<g style="mix-blend-mode:difference">
<path d="M307.134 400.474C307.343 399.582 308.049 398.8 309.177 398.569C311.043 398.187 311.902 399.35 312.21 400.855L313.094 405.165L311.213 405.551L310.406 401.616C310.188 400.551 309.733 400.007 308.809 400.196C307.9 400.383 307.505 401.247 307.743 402.407L308.501 406.106L306.62 406.492L305.814 402.558C305.595 401.492 305.125 400.951 304.216 401.138C303.307 401.324 302.913 402.189 303.15 403.349L303.909 407.048L302.028 407.433L300.611 400.521L302.492 400.136L302.723 401.264C302.907 400.41 303.582 399.716 304.632 399.501C305.855 399.25 306.663 399.689 307.134 400.474Z" fill="white"/>
</g>
<g style="mix-blend-mode:difference">
<path d="M311.952 394.953L313.804 394.447L316.461 404.17L314.608 404.676L311.952 394.953Z" fill="white"/>
</g>
<g style="mix-blend-mode:difference">
<path d="M316.301 396.887L318.137 396.326L320.202 403.073L318.366 403.635L316.301 396.887ZM315.934 395.795L315.386 394.005L317.268 393.429L317.816 395.219L315.934 395.795Z" fill="white"/>
</g>
<g style="mix-blend-mode:difference">
<path d="M322.526 398.363L323.806 401.916L322 402.567L319.608 395.928L321.414 395.277L321.805 396.361C321.865 395.489 322.523 394.674 323.517 394.316C325.293 393.676 326.374 394.647 326.906 396.122L328.397 400.261L326.591 400.912L325.229 397.134C324.861 396.11 324.243 395.67 323.355 395.99C322.436 396.321 322.125 397.249 322.526 398.363Z" fill="white"/>
</g>
<g style="mix-blend-mode:difference">
<path d="M333.879 395.29L335.367 394.819C335.653 396.404 334.907 397.739 333.248 398.458C331.252 399.324 329.26 398.672 328.375 396.631C327.489 394.591 328.306 392.493 330.243 391.652C332.357 390.735 334.08 391.732 334.844 393.493L335.118 394.124L330.259 396.232C330.732 397.161 331.774 397.511 332.728 397.097C333.594 396.722 333.948 396.132 333.879 395.29ZM329.811 395.119L332.923 393.769C332.54 393.045 331.772 392.524 330.789 392.95C329.82 393.371 329.622 394.241 329.811 395.119Z" fill="white"/>
</g>
<g style="mix-blend-mode:difference">
<path d="M342.201 382.445L347.62 387.888L347.675 387.856L345.554 380.507L347.216 379.547L350.001 389.579L348.089 390.684L342.807 385.347L342.751 385.379L344.723 392.629L342.825 393.726L335.524 386.303L337.255 385.302L342.569 390.788L342.624 390.756L340.608 383.365L342.201 382.445Z" fill="white"/>
</g>
<g style="mix-blend-mode:difference">
<path d="M352.592 383.672C353.355 384.759 354.386 385.169 355.342 384.498C356.311 383.818 356.276 382.709 355.513 381.622C354.741 380.522 353.71 380.112 352.741 380.792C351.785 381.463 351.82 382.572 352.592 383.672ZM357.098 380.51C358.357 382.304 357.973 384.431 356.178 385.69C354.397 386.94 352.267 386.578 351.008 384.784C349.748 382.989 350.123 380.85 351.905 379.6C353.699 378.341 355.838 378.716 357.098 380.51Z" fill="white"/>
</g>
<g style="mix-blend-mode:difference">
<path d="M359.832 373.994L360.827 375.492C360.409 375.556 360.099 375.678 359.734 375.965C358.954 376.578 358.861 377.547 359.653 378.553L361.809 381.295L360.301 382.482L355.938 376.936L357.447 375.749L358.278 376.805C357.984 376.018 358.108 374.985 358.875 374.381C359.214 374.114 359.56 373.985 359.832 373.994Z" fill="white"/>
</g>
<g style="mix-blend-mode:difference">
<path d="M364.509 376.019L366.093 377.821L364.651 379.089L357.996 371.519L359.438 370.251L363.304 374.649L363.694 370.536L365.436 369.004L364.975 373.181L370.179 374.23L368.533 375.677L364.625 374.915L364.509 376.019Z" fill="white"/>
</g>
<g style="mix-blend-mode:difference">
<path d="M367.822 368.558L367.079 369.286L366.138 368.326L366.881 367.598L366.466 367.176C365.312 365.999 365.337 364.608 366.468 363.498C367.382 362.602 368.367 362.487 369.368 363.074L368.769 364.222C368.341 364.015 367.911 364.01 367.557 364.358C367.134 364.772 367.265 365.271 367.725 365.74L368.24 366.265L369.588 364.943L370.529 365.903L369.181 367.225L373.18 371.303L371.821 372.636L367.822 368.558Z" fill="white"/>
</g>
<g style="mix-blend-mode:difference">
<path d="M367.684 362.547L369.01 361.159L376.299 368.121L374.973 369.509L367.684 362.547Z" fill="white"/>
</g>
<g style="mix-blend-mode:difference">
<path d="M375.829 363.478C376.831 364.349 377.931 364.499 378.697 363.617C379.473 362.723 379.171 361.655 378.168 360.785C377.154 359.903 376.054 359.754 375.278 360.648C374.512 361.529 374.814 362.597 375.829 363.478ZM379.438 359.323C381.093 360.76 381.233 362.917 379.796 364.572C378.369 366.214 376.214 366.377 374.559 364.94C372.904 363.503 372.752 361.336 374.179 359.693C375.616 358.038 377.783 357.885 379.438 359.323Z" fill="white"/>
</g>
<g style="mix-blend-mode:difference">
<path d="M381.12 351.359L385.67 353.122L385.708 353.07L382.799 349.097L383.838 347.697L388.169 353.701L387.062 355.192L382.561 353.444L382.523 353.496L385.498 357.299L384.383 358.802L377.382 356.395L378.517 354.866L383.171 356.488L383.209 356.436L380.195 352.605L381.12 351.359Z" fill="white"/>
</g>
<g style="mix-blend-mode:difference">
<path d="M388.788 343.43L389.78 341.73C390.538 340.431 390.372 339.574 389.432 339.026C388.492 338.477 387.637 338.737 386.878 340.036L385.886 341.736L388.788 343.43ZM390.197 344.252L393.196 346.003L392.195 347.716L383.49 342.634L385.515 339.166C386.814 336.941 388.592 336.275 390.402 337.332C392.213 338.389 392.521 340.273 391.222 342.498L390.197 344.252Z" fill="white"/>
</g>
<g style="mix-blend-mode:difference">
<path d="M392.941 331.902L394.474 332.841C394.122 333.075 393.892 333.317 393.682 333.731C393.233 334.615 393.557 335.533 394.699 336.112L397.81 337.689L396.942 339.402L390.648 336.211L391.517 334.499L392.715 335.106C392.117 334.516 391.794 333.527 392.235 332.656C392.43 332.271 392.69 332.008 392.941 331.902Z" fill="white"/>
</g>
<g style="mix-blend-mode:difference">
<path d="M396.924 331.5C398.14 332.033 399.234 331.849 399.703 330.78C400.178 329.695 399.573 328.766 398.357 328.232C397.126 327.692 396.032 327.877 395.556 328.961C395.087 330.031 395.693 330.96 396.924 331.5ZM399.134 326.459C401.142 327.34 401.917 329.357 401.036 331.364C400.162 333.357 398.153 334.153 396.146 333.273C394.139 332.392 393.349 330.369 394.223 328.376C395.103 326.369 397.127 325.579 399.134 326.459Z" fill="white"/>
</g>
<g style="mix-blend-mode:difference">
<path d="M399.554 325.456C397.449 324.689 396.583 322.722 397.328 320.677C398.046 318.708 399.733 318.097 401.381 318.527L400.933 320.084C399.892 319.858 399.073 320.189 398.711 321.181C398.349 322.173 398.834 323.133 400.217 323.637C401.585 324.136 402.574 323.713 402.935 322.721C403.297 321.729 402.868 320.942 401.91 320.44L402.599 318.971C404.138 319.702 405.036 321.256 404.318 323.225C403.573 325.269 401.659 326.223 399.554 325.456Z" fill="white"/>
</g>
<g style="mix-blend-mode:difference">
<path d="M404.764 313.237L405.36 311.795C406.758 312.595 407.301 314.025 406.786 315.758C406.166 317.844 404.384 318.95 402.253 318.316C400.121 317.682 399.039 315.707 399.641 313.683C400.298 311.475 402.169 310.796 404.009 311.343L404.668 311.539L403.159 316.616C404.174 316.851 405.112 316.278 405.408 315.281C405.678 314.377 405.454 313.726 404.764 313.237ZM402.018 316.243L402.985 312.992C402.184 312.82 401.291 313.072 400.986 314.1C400.685 315.112 401.224 315.823 402.018 316.243Z" fill="white"/>
</g>
<g style="mix-blend-mode:difference">
<path d="M405.478 311.265L405.792 309.63C406.644 309.713 407.209 309.187 407.43 308.236C407.589 307.551 407.486 306.935 406.987 306.819C406.52 306.711 406.245 306.975 405.976 307.636L405.536 308.683C404.962 310.094 404.228 310.778 402.95 310.481C401.641 310.177 400.994 308.86 401.399 307.115C401.841 305.214 402.962 304.275 404.519 304.505L404.223 306.062C403.414 306.006 402.902 306.445 402.674 307.427C402.518 308.097 402.713 308.603 403.18 308.711C403.554 308.798 403.831 308.599 404.024 308.119L404.547 306.86C405.117 305.465 405.924 304.749 407.217 305.05C408.62 305.375 409.117 306.772 408.704 308.549C408.288 310.341 407.19 311.531 405.478 311.265Z" fill="white"/>
</g>
<g style="mix-blend-mode:difference">
<path d="M407.244 303.616L407.457 301.965C408.312 301.995 408.844 301.436 409.007 300.473C409.124 299.779 408.983 299.171 408.478 299.086C408.004 299.006 407.746 299.287 407.519 299.963L407.143 301.036C406.657 302.479 405.966 303.206 404.672 302.988C403.347 302.765 402.621 301.49 402.919 299.723C403.243 297.798 404.305 296.793 405.872 296.927L405.672 298.5C404.862 298.493 404.377 298.963 404.21 299.957C404.095 300.635 404.321 301.128 404.794 301.207C405.173 301.271 405.436 301.056 405.6 300.564L406.044 299.276C406.528 297.849 407.29 297.085 408.599 297.306C410.019 297.545 410.601 298.909 410.298 300.707C409.992 302.522 408.969 303.777 407.244 303.616Z" fill="white"/>
</g>
<g style="mix-blend-mode:difference">
<path d="M409.017 290.134L409.339 288.608C410.86 289.139 411.655 290.446 411.464 292.244C411.235 294.408 409.686 295.82 407.474 295.586C405.263 295.352 403.838 293.608 404.061 291.508C404.303 289.217 406.019 288.208 407.928 288.41L408.612 288.483L408.055 293.749C409.096 293.795 409.914 293.061 410.023 292.027C410.123 291.088 409.784 290.489 409.017 290.134ZM406.865 293.591L407.222 290.218C406.404 290.196 405.572 290.606 405.459 291.672C405.348 292.722 406.008 293.323 406.865 293.591Z" fill="white"/>
</g>
<g style="mix-blend-mode:difference">
<path d="M409.332 288.349L409.347 286.684C410.2 286.612 410.662 285.994 410.708 285.019C410.742 284.316 410.529 283.729 410.018 283.704C409.538 283.681 409.315 283.991 409.17 284.689L408.925 285.799C408.613 287.29 408.014 288.094 406.704 288.031C405.361 287.967 404.489 286.788 404.574 284.998C404.667 283.049 405.602 281.924 407.174 281.871L407.162 283.456C406.357 283.546 405.932 284.07 405.884 285.077C405.851 285.764 406.133 286.226 406.613 286.249C406.996 286.267 407.232 286.022 407.337 285.515L407.624 284.183C407.935 282.708 408.6 281.859 409.927 281.922C411.365 281.991 412.105 283.275 412.018 285.097C411.93 286.935 411.064 288.303 409.332 288.349Z" fill="white"/>
</g>
<path d="M159.342 283.12C159.102 283.135 158.811 283.161 158.469 283.198C158.134 283.234 157.81 283.302 157.495 283.401C157.189 283.508 156.93 283.66 156.718 283.857C156.505 284.055 156.409 284.325 156.43 284.668C156.452 285.02 156.58 285.281 156.815 285.451C157.05 285.629 157.326 285.748 157.642 285.809C157.967 285.877 158.297 285.909 158.634 285.905C158.978 285.9 159.27 285.89 159.509 285.875C159.653 285.867 159.825 285.852 160.024 285.832C160.231 285.819 160.442 285.79 160.656 285.745C160.87 285.708 161.079 285.655 161.283 285.587C161.496 285.526 161.683 285.438 161.844 285.324C162.006 285.21 162.133 285.07 162.227 284.904C162.322 284.738 162.361 284.539 162.347 284.308C162.333 284.076 162.269 283.884 162.156 283.73C162.043 283.585 161.899 283.465 161.725 283.372C161.552 283.286 161.355 283.222 161.136 283.179C160.925 283.136 160.711 283.109 160.494 283.098C160.277 283.087 160.065 283.084 159.857 283.089C159.657 283.101 159.485 283.112 159.342 283.12ZM159.238 281.42C160.052 281.37 160.74 281.408 161.301 281.534C161.87 281.668 162.331 281.864 162.683 282.123C163.035 282.382 163.295 282.691 163.461 283.05C163.627 283.416 163.723 283.807 163.749 284.222C163.775 284.646 163.727 285.045 163.605 285.421C163.485 285.805 163.265 286.147 162.947 286.447C162.629 286.755 162.195 287.006 161.646 287.2C161.105 287.401 160.428 287.527 159.613 287.576C158.775 287.627 158.067 287.586 157.49 287.453C156.921 287.328 156.46 287.131 156.107 286.864C155.755 286.605 155.495 286.292 155.329 285.926C155.163 285.567 155.067 285.176 155.041 284.753C155.016 284.338 155.063 283.938 155.184 283.554C155.306 283.178 155.525 282.84 155.844 282.54C156.162 282.24 156.596 281.989 157.144 281.788C157.702 281.593 158.399 281.471 159.238 281.42Z" fill="white" fill-opacity="0.3"/>
<path d="M159.809 289.965C159.57 289.986 159.28 290.02 158.939 290.067C158.606 290.113 158.283 290.19 157.971 290.298C157.669 290.413 157.414 290.572 157.207 290.775C157 290.979 156.912 291.252 156.943 291.594C156.974 291.945 157.109 292.202 157.349 292.365C157.589 292.537 157.868 292.648 158.186 292.7C158.512 292.759 158.844 292.782 159.18 292.768C159.524 292.754 159.815 292.736 160.054 292.714C160.198 292.701 160.369 292.682 160.567 292.656C160.774 292.638 160.984 292.603 161.196 292.552C161.41 292.509 161.617 292.45 161.819 292.376C162.03 292.309 162.215 292.216 162.373 292.098C162.531 291.979 162.655 291.836 162.744 291.667C162.833 291.499 162.868 291.299 162.847 291.068C162.827 290.837 162.757 290.646 162.64 290.496C162.522 290.354 162.376 290.238 162.199 290.15C162.023 290.069 161.825 290.01 161.605 289.974C161.393 289.936 161.178 289.915 160.961 289.911C160.744 289.906 160.531 289.909 160.323 289.919C160.124 289.937 159.953 289.952 159.809 289.965ZM159.658 288.268C160.471 288.195 161.159 288.214 161.723 288.325C162.296 288.442 162.762 288.626 163.121 288.875C163.481 289.124 163.749 289.425 163.925 289.779C164.102 290.141 164.209 290.529 164.246 290.943C164.283 291.365 164.247 291.766 164.136 292.145C164.026 292.533 163.816 292.881 163.506 293.189C163.197 293.506 162.771 293.769 162.227 293.978C161.692 294.195 161.019 294.339 160.206 294.411C159.369 294.486 158.66 294.465 158.08 294.348C157.508 294.238 157.042 294.055 156.681 293.798C156.322 293.549 156.054 293.244 155.877 292.882C155.701 292.528 155.594 292.14 155.556 291.718C155.519 291.303 155.556 290.903 155.666 290.515C155.776 290.136 155.987 289.792 156.297 289.483C156.606 289.175 157.033 288.912 157.576 288.695C158.127 288.485 158.821 288.342 159.658 288.268Z" fill="white" fill-opacity="0.3"/>
<path d="M156.585 300.015L156.386 298.323L161.797 297.687L161.55 295.59L162.825 295.44C162.852 295.735 162.905 296.014 162.984 296.279C163.073 296.55 163.193 296.786 163.345 296.986C163.507 297.192 163.703 297.358 163.936 297.484C164.168 297.61 164.446 297.678 164.769 297.688L164.927 299.035L156.585 300.015Z" fill="white" fill-opacity="0.3"/>
<path d="M158.778 302.582L159.038 304.448L157.208 304.703L156.948 302.837L158.778 302.582Z" fill="white" fill-opacity="0.3"/>
<path fill-rule="evenodd" clip-rule="evenodd" d="M172.251 280.999C172.251 295.543 175.115 309.945 180.681 323.381C186.247 336.818 194.405 349.027 204.689 359.311C214.973 369.595 227.182 377.753 240.619 383.319C254.055 388.885 268.457 391.749 283.001 391.749C297.545 391.749 311.946 388.885 325.383 383.319C338.82 377.753 351.029 369.595 361.313 359.311C371.597 349.027 379.755 336.818 385.321 323.381C390.886 309.945 393.751 295.543 393.751 280.999H394.251C394.251 295.609 391.373 310.075 385.782 323.573C380.192 337.07 371.997 349.334 361.666 359.665C351.336 369.995 339.072 378.19 325.574 383.781C312.077 389.372 297.61 392.249 283.001 392.249C268.391 392.249 253.925 389.372 240.427 383.781C226.93 378.19 214.666 369.995 204.335 359.665C194.005 349.334 185.81 337.07 180.219 323.573C174.628 310.075 171.751 295.609 171.751 280.999H172.251Z" fill="white"/>
</g>
<g style="mix-blend-mode:difference">
<path d="M428.303 199.966C430.323 195.59 434.784 192.307 440.844 192.307C450.859 192.307 454.057 199.209 454.057 207.289V230.434H443.958V209.309C443.958 203.585 442.19 200.303 437.225 200.303C432.343 200.303 429.398 204.343 429.398 210.571V230.434H419.298V209.309C419.298 203.585 417.446 200.303 412.565 200.303C407.683 200.303 404.738 204.343 404.738 210.571V230.434H394.638V193.317H404.738V199.377C406.589 195.169 410.797 192.307 416.436 192.307C423.001 192.307 426.704 195.422 428.303 199.966Z" fill="white"/>
<path d="M367.74 212.591V211.16C367.74 204.427 363.616 200.219 357.893 200.219C351.581 200.219 348.299 204.848 348.299 211.918C348.299 218.903 351.581 223.532 357.893 223.532C363.616 223.532 367.74 219.408 367.74 212.591ZM367.656 230.434V223.364C365.973 227.825 361.428 231.444 354.863 231.444C343.838 231.444 338.115 222.859 338.115 211.918C338.115 200.976 343.838 192.307 354.863 192.307C361.428 192.307 365.973 195.927 367.656 200.471V177.411H377.756V230.434H367.656Z" fill="white"/>
<path d="M309.879 210.571V230.434H299.78V193.317H309.879V199.377C311.731 195.169 316.444 192.307 321.999 192.307C331.93 192.307 335.549 199.041 335.549 207.289V230.434H325.45V209.309C325.45 203.585 323.177 200.303 318.212 200.303C313.078 200.303 309.879 204.343 309.879 210.571Z" fill="white"/>
<path d="M284.493 213.18V193.318H294.593V230.434H284.493V224.374C282.558 228.666 278.181 231.444 272.542 231.444C262.695 231.444 259.328 224.795 259.328 216.547V193.318H269.428V214.527C269.428 220.166 271.532 223.532 276.498 223.532C281.464 223.532 284.493 219.492 284.493 213.18Z" fill="white"/>
<path d="M227.797 211.918C227.797 218.903 230.995 223.785 237.139 223.785C243.367 223.785 246.565 218.903 246.565 211.918C246.565 204.848 243.367 199.966 237.139 199.966C230.995 199.966 227.797 204.848 227.797 211.918ZM256.749 211.918C256.749 223.448 248.669 231.444 237.139 231.444C225.693 231.444 217.613 223.448 217.613 211.918C217.613 200.387 225.693 192.307 237.139 192.307C248.669 192.307 256.749 200.387 256.749 211.918Z" fill="white"/>
<path d="M199.366 200.387H193.895V193.317H199.366V190.203C199.366 181.534 204.584 176.401 212.916 176.401C219.649 176.401 223.773 179.599 225.372 185.49L218.892 187.594C218.05 185.238 216.451 183.639 213.842 183.639C210.728 183.639 209.381 185.995 209.381 189.446V193.317H219.313V200.387H209.381V230.434H199.366V200.387Z" fill="white"/>
<path d="M163.027 221.007V200.387H157.725V194.412L160.249 193.991C163.868 193.402 164.878 191.55 165.72 188.099L166.898 183.049H173.042V193.317H183.142V200.387H173.042V218.735C173.042 221.933 174.473 223.364 177.503 223.364C179.523 223.364 181.627 222.606 183.815 221.596V228.245C181.122 230.265 178.092 231.444 173.547 231.444C167.824 231.444 163.027 228.919 163.027 221.007Z" fill="white"/>
<path d="M124.876 218.146L133.629 217.809C134.219 222.27 137.585 224.542 142.719 224.542C146.422 224.542 149.452 223.28 149.452 220.586C149.452 218.062 147.769 216.967 144.066 216.378L138.174 215.368C130.263 214.106 125.886 211.16 125.886 204.259C125.886 197.189 131.862 192.307 141.288 192.307C151.556 192.307 157.7 196.936 158.374 205.185L150.041 205.521C149.368 201.313 146.506 199.209 141.204 199.209C137.585 199.209 135.229 200.808 135.229 203.333C135.229 205.353 136.575 206.531 139.268 206.952L146.338 208.13C154.165 209.393 158.794 212.675 158.794 219.661C158.794 227.235 152.23 231.444 142.635 231.444C132.956 231.444 125.55 227.235 124.876 218.146Z" fill="white"/>
<path d="M377.801 150.472L385.965 151.314C384.029 159.562 377.633 164.444 368.122 164.444C356.676 164.444 348.428 157.121 348.428 145.423C348.428 133.724 356.76 125.307 367.87 125.307C379.99 125.307 386.218 133.724 386.218 143.823V147.443H358.359C358.696 152.913 362.988 156.785 368.459 156.785C373.425 156.785 376.37 154.681 377.801 150.472ZM358.528 141.13H376.37C376.034 136.838 373.425 132.714 367.786 132.714C362.231 132.714 359.454 136.501 358.528 141.13Z" fill="white"/>
<path d="M335.506 163.434H324.396L309.752 126.318H320.356L330.203 152.24H330.54L340.303 126.318H350.15L335.506 163.434Z" fill="white"/>
<path d="M286.667 146.18V126.318H296.766V163.434H286.667V157.374C284.731 161.666 280.354 164.444 274.715 164.444C264.868 164.444 261.502 157.795 261.502 149.547V126.318H271.601V147.527C271.601 153.166 273.705 156.532 278.671 156.532C283.637 156.532 286.667 152.492 286.667 146.18Z" fill="white"/>
<path d="M229.97 144.918C229.97 151.903 233.168 156.785 239.312 156.785C245.54 156.785 248.738 151.903 248.738 144.918C248.738 137.848 245.54 132.966 239.312 132.966C233.168 132.966 229.97 137.848 229.97 144.918ZM258.922 144.918C258.922 156.448 250.842 164.444 239.312 164.444C227.866 164.444 219.786 156.448 219.786 144.918C219.786 133.387 227.866 125.307 239.312 125.307C250.842 125.307 258.922 133.387 258.922 144.918Z" fill="white"/>
<path d="M202.768 132.882L216.655 110.411H228.017L207.481 142.982V163.434H197.213V142.982L176.677 110.411H188.376L202.768 132.882Z" fill="white"/>
</g>
</g>
</svg>
